<svg width="158" height="72" viewBox="0 0 158 72" fill="none" xmlns="http://www.w3.org/2000/svg">
<g clip-path="url(#clip0_11077_12366)">
<g clip-path="url(#clip1_11077_12366)">
<path d="M79.6 11.2273C73.9813 11.2014 66.757 14.8417 65.3743 23.3462C65.3597 23.4386 65.3349 23.5298 65.3158 23.621C65.2268 24.0534 65.3709 24.7109 65.0579 24.8663C64.7618 25.0127 64.2269 24.6648 63.7934 24.5488C62.1225 24.1052 60.429 23.7865 58.7006 23.7054C58.2018 23.6818 58.0644 23.5557 58.141 23.0141C58.9911 16.9957 61.8027 12.1213 66.6624 8.47876C69.9987 5.97683 73.7899 4.63578 77.9594 4.35091C83.2594 3.98947 88.1383 5.19765 92.4362 8.35941C97.3308 11.9592 100.269 16.7941 100.961 22.8542C101.777 29.9952 99.5614 36.1003 94.285 41.0163C91.1638 43.9247 87.3952 45.5506 83.2121 46.2465C82.0625 46.4379 82.0771 46.403 81.9139 45.223C81.6673 43.4383 81.3362 41.6694 80.5931 40.0119C80.4309 39.6516 80.4794 39.5458 80.8892 39.503C87.3535 38.8229 92.3619 34.4586 93.6646 28.1486C94.6758 23.2528 93.2278 18.9729 89.7687 15.4159C87.0033 12.5728 83.5466 11.2701 79.6 11.2273Z" fill="#6C768A"/>
<path d="M78.2837 49.0925C74.2876 48.9799 70.4356 48.2739 66.8798 46.3282C61.9998 43.6585 58.945 39.5374 57.2864 34.3049C56.4318 31.6093 55.9881 28.8473 55.9893 26.0143C55.9893 25.5493 56.0771 25.3793 56.6029 25.4097C61.2532 25.6765 65.6671 26.7687 69.7004 29.1626C74.6445 32.0969 77.6566 36.4893 79.2183 41.9492C79.8286 44.0841 80.1484 46.2629 80.2508 48.4811C80.2756 49.0114 80.0909 49.1217 79.6327 49.097C79.1845 49.0722 78.733 49.0913 78.2826 49.0913L78.2837 49.0925Z" fill="#6C768A"/>
<path d="M84.5677 25.1782C84.4461 28.68 83.2053 31.549 81.1132 34.078C80.7079 34.5678 80.2417 35.0081 79.8138 35.4798C79.6382 35.6735 79.5154 35.6814 79.3206 35.4832C76.5676 32.6829 74.7919 29.3928 74.676 25.4214C74.5881 22.4274 75.7074 19.7431 77.3941 17.2941C77.9807 16.4428 78.6428 15.6547 79.3781 14.9273C79.5312 14.7764 79.6269 14.6953 79.8183 14.9003C82.568 17.8593 84.3673 21.2429 84.5677 25.1782Z" fill="#6C768A"/>
</g>
<path d="M24.0555 67.5577C24.0555 67.5577 25.4884 64.1219 28.3542 57.2503C28.3542 57.2503 28.8561 57.2503 29.8598 57.2503C29.8598 57.2503 31.3018 60.6861 34.1857 67.5577C34.1857 67.5577 33.484 67.5577 32.0807 67.5577C32.0807 67.5577 31.7128 66.6698 30.977 64.894C30.977 64.894 29.7553 64.894 27.3119 64.894C27.3119 64.894 26.9304 65.7819 26.1674 67.5577C26.1674 67.5577 25.4635 67.5577 24.0555 67.5577ZM28.0068 63.0682C28.0068 63.0682 28.7425 63.0682 30.214 63.0682C30.214 63.0682 29.8462 62.0259 29.1104 59.9413C29.1104 59.9413 28.7425 60.9836 28.0068 63.0682Z" fill="#6C768A"/>
<path d="M40.7053 59.0761C40.7053 59.0761 39.5335 59.0761 37.19 59.0761C37.19 59.0761 37.19 61.9033 37.19 67.5577C37.19 67.5577 36.5519 67.5577 35.2757 67.5577C35.2757 67.5577 35.2757 64.1219 35.2757 57.2503C35.2757 57.2503 37.0856 57.2503 40.7053 57.2503C40.7053 57.2503 40.7053 57.8589 40.7053 59.0761Z" fill="#6C768A"/>
<path d="M41.7885 67.5577C41.7885 67.5577 41.7885 64.1219 41.7885 57.2503C41.7885 57.2503 42.64 57.2503 44.3432 57.2503C45.0471 57.2503 45.5989 57.2889 45.9986 57.3662C46.4028 57.4434 46.7593 57.5796 47.0682 57.7749C47.486 58.0474 47.8085 58.413 48.0355 58.8717C48.2626 59.3304 48.3762 59.8482 48.3762 60.425C48.3762 61.0381 48.2467 61.5944 47.9879 62.094C47.7335 62.5936 47.3838 62.9683 46.9387 63.2181C46.6571 63.3725 46.3233 63.4815 45.9373 63.5451C45.5512 63.6087 45.0108 63.6405 44.3159 63.6405H43.7028V67.5577H41.7885ZM43.7028 61.8079H44.2614C44.8427 61.8079 45.2787 61.7625 45.5694 61.6717C45.8419 61.5944 46.0554 61.4491 46.2098 61.2357C46.3687 61.0222 46.4482 60.7679 46.4482 60.4727C46.4482 60.1457 46.3687 59.8663 46.2098 59.6347C46.0508 59.4031 45.8328 59.2487 45.5558 59.1715C45.2833 59.1079 44.8791 59.0761 44.3432 59.0761H43.7028V61.8079Z" fill="#6C768A"/>
<path d="M54.7527 57.0664C55.4702 57.0664 56.156 57.2072 56.81 57.4888C57.464 57.7704 58.0272 58.1496 58.4995 58.6265C58.9719 59.0988 59.3466 59.6642 59.6236 60.3228C59.9052 60.9813 60.046 61.6717 60.046 62.3938C60.046 63.3839 59.8121 64.2877 59.3443 65.1052C58.8765 65.9227 58.2361 66.5676 57.4232 67.0399C56.6102 67.5077 55.711 67.7416 54.7254 67.7416C53.9806 67.7416 53.2721 67.6031 52.5999 67.326C51.9323 67.049 51.3578 66.6743 50.8764 66.202C50.3949 65.7251 50.0112 65.1574 49.725 64.4988C49.4435 63.8358 49.3027 63.1386 49.3027 62.4074C49.3027 61.6671 49.4435 60.9677 49.725 60.3092C50.0066 59.6461 50.3881 59.0784 50.8695 58.606C51.351 58.1337 51.9277 57.759 52.5999 57.482C53.2766 57.2049 53.9942 57.0664 54.7527 57.0664ZM54.63 58.9058C53.6899 58.9058 52.886 59.2464 52.2184 59.9277C51.5553 60.6044 51.2238 61.4264 51.2238 62.3938C51.2238 62.8797 51.3146 63.3384 51.4963 63.7699C51.678 64.2014 51.9232 64.5738 52.232 64.8872C52.5409 65.196 52.911 65.4412 53.3425 65.6229C53.7739 65.8046 54.2304 65.8954 54.7118 65.8954C55.6882 65.8954 56.4989 65.5661 57.1439 64.9076C57.7933 64.2491 58.118 63.4202 58.118 62.421C58.118 61.4082 57.7865 60.5703 57.1234 59.9072C56.4649 59.2396 55.6337 58.9058 54.63 58.9058Z" fill="#6C768A"/>
<path d="M61.5311 67.5577C61.5311 67.5577 61.5311 64.1219 61.5311 57.2503C61.5311 57.2503 63.97 57.2503 68.8477 57.2503C68.8477 57.2503 68.8477 60.6861 68.8477 67.5577C68.8477 67.5577 68.2096 67.5577 66.9334 67.5577C66.9334 67.5577 66.9334 64.7305 66.9334 59.0761C66.9334 59.0761 65.7707 59.0761 63.4454 59.0761C63.4454 59.0761 63.4454 61.9033 63.4454 67.5577C63.4454 67.5577 62.8073 67.5577 61.5311 67.5577Z" fill="#6C768A"/>
<path d="M75.7897 57.0664C76.5072 57.0664 77.193 57.2072 77.847 57.4888C78.501 57.7704 79.0642 58.1496 79.5365 58.6265C80.0089 59.0988 80.3836 59.6642 80.6606 60.3228C80.9422 60.9813 81.083 61.6717 81.083 62.3938C81.083 63.3839 80.8491 64.2877 80.3813 65.1052C79.9135 65.9227 79.2731 66.5676 78.4602 67.0399C77.6472 67.5077 76.748 67.7416 75.7624 67.7416C75.0176 67.7416 74.3091 67.6031 73.6369 67.326C72.9693 67.049 72.3948 66.6743 71.9134 66.202C71.4319 65.7251 71.0482 65.1574 70.762 64.4988C70.4805 63.8358 70.3397 63.1386 70.3397 62.4074C70.3397 61.6671 70.4805 60.9677 70.762 60.3092C71.0436 59.6461 71.4251 59.0784 71.9065 58.606C72.388 58.1337 72.9647 57.759 73.6369 57.482C74.3136 57.2049 75.0312 57.0664 75.7897 57.0664ZM75.667 58.9058C74.7269 58.9058 73.923 59.2464 73.2554 59.9277C72.5923 60.6044 72.2608 61.4264 72.2608 62.3938C72.2608 62.8797 72.3516 63.3384 72.5333 63.7699C72.715 64.2014 72.9602 64.5738 73.269 64.8872C73.5779 65.196 73.948 65.4412 74.3795 65.6229C74.8109 65.8046 75.2674 65.8954 75.7488 65.8954C76.7252 65.8954 77.5359 65.5661 78.1808 64.9076C78.8303 64.2491 79.155 63.4202 79.155 62.421C79.155 61.4082 78.8235 60.5703 78.1604 59.9072C77.5019 59.2396 76.6707 58.9058 75.667 58.9058Z" fill="#6C768A"/>
<path d="M85.9812 59.8732C85.9812 59.8732 84.9797 62.4347 82.9768 67.5577C82.9768 67.5577 82.2888 67.5577 80.9127 67.5577C80.9127 67.5577 82.3501 64.1219 85.225 57.2503C85.225 57.2503 85.7268 57.2503 86.7305 57.2503C86.7305 57.2503 88.168 60.6861 91.0429 67.5577C91.0429 67.5577 90.3548 67.5577 88.9787 67.5577C88.9787 67.5577 87.9795 64.9962 85.9812 59.8732Z" fill="#6C768A"/>
<path d="M98.5093 57.2503C98.5093 57.2503 99.1565 57.2503 100.451 57.2503C100.451 57.2503 100.451 60.6861 100.451 67.5577C100.451 67.5577 99.8173 67.5577 98.5502 67.5577C98.5502 67.5577 98.5502 65.1756 98.5502 60.4113C98.5502 60.4113 97.0583 62.7934 94.0744 67.5577C94.0744 67.5577 93.4272 67.5577 92.1328 67.5577C92.1328 67.5577 92.1328 64.1219 92.1328 57.2503C92.1328 57.2503 92.7664 57.2503 94.0335 57.2503C94.0335 57.2503 94.0335 59.6302 94.0335 64.3898C94.0335 64.3898 95.5255 62.01 98.5093 57.2503Z" fill="#6C768A"/>
<path d="M101.541 67.5577C101.541 67.5577 102.724 65.8454 105.09 62.421C105.09 62.421 103.907 60.6975 101.541 57.2503C101.541 57.2503 102.299 57.2503 103.816 57.2503C103.816 57.2503 104.616 58.4493 106.214 60.8473C106.214 60.8473 107.039 59.6483 108.687 57.2503C108.687 57.2503 109.428 57.2503 110.908 57.2503C110.908 57.2503 109.716 58.9739 107.332 62.421C107.332 62.421 108.524 64.1332 110.908 67.5577C110.908 67.5577 110.168 67.5577 108.687 67.5577C108.687 67.5577 107.863 66.3723 106.214 64.0015C106.214 64.0015 105.415 65.1869 103.816 67.5577C103.816 67.5577 103.058 67.5577 101.541 67.5577Z" fill="#6C768A"/>
<path d="M118.361 57.2503C118.361 57.2503 119.008 57.2503 120.303 57.2503C120.303 57.2503 120.303 60.6861 120.303 67.5577C120.303 67.5577 119.669 67.5577 118.402 67.5577C118.402 67.5577 118.402 65.1756 118.402 60.4113C118.402 60.4113 116.91 62.7934 113.926 67.5577C113.926 67.5577 113.279 67.5577 111.984 67.5577C111.984 67.5577 111.984 64.1219 111.984 57.2503C111.984 57.2503 112.618 57.2503 113.885 57.2503C113.885 57.2503 113.885 59.6302 113.885 64.3898C113.885 64.3898 115.377 62.01 118.361 57.2503Z" fill="#6C768A"/>
<path d="M122.285 67.5577C122.285 67.5577 122.285 64.1219 122.285 57.2503C122.285 57.2503 123.159 57.2503 124.908 57.2503C124.908 57.2503 125.834 59.8527 127.687 65.0575C127.687 65.0575 128.602 62.4551 130.433 57.2503C130.433 57.2503 131.307 57.2503 133.056 57.2503C133.056 57.2503 133.056 60.6861 133.056 67.5577C133.056 67.5577 132.42 67.5577 131.148 67.5577C131.148 67.5577 131.148 64.9803 131.148 59.8255C131.148 59.8255 130.251 62.4029 128.457 67.5577C128.457 67.5577 127.935 67.5577 126.89 67.5577C126.89 67.5577 125.993 64.9803 124.199 59.8255C124.199 59.8255 124.199 62.4029 124.199 67.5577C124.199 67.5577 123.561 67.5577 122.285 67.5577Z" fill="#6C768A"/>
</g>
<defs>
<clipPath id="clip0_11077_12366">
<rect width="157" height="72" fill="white" transform="translate(0.055542)"/>
</clipPath>
<clipPath id="clip1_11077_12366">
<rect width="45.2645" height="44.8141" fill="white" transform="translate(55.9233 4.25781)"/>
</clipPath>
</defs>
</svg>
