<svg width="182" height="72" viewBox="0 0 182 72" fill="none" xmlns="http://www.w3.org/2000/svg">
<g clip-path="url(#clip0_11077_12433)">
<path fill-rule="evenodd" clip-rule="evenodd" d="M99.1417 60.6865H104.96C105.007 59.5322 105.138 57.815 105.729 56.1024C106.593 53.6015 108.183 52.3957 109.427 50.411C112.716 45.1512 115.217 42.3829 115.615 33.8012H109.666C112.641 31.9713 114.409 28.1239 114.639 23.1972H112.429V23.1597C102.614 23.1597 92.8497 23.1409 83.034 23.1409V27.8283H83.048V29.3156C82.9401 34.8334 84.0944 36.8369 86.7923 41.482C87.5242 42.7395 88.289 43.7999 88.7676 45.4703C89.0397 46.4227 89.1758 47.3236 89.2133 47.9758V52.1611H98.7898V47.4737H94.5763C94.5341 46.9717 94.6232 46.4743 94.5576 45.977C94.2995 43.9594 93.4502 42.1483 92.5165 40.5342C93.1546 38.2868 94.9517 36.9449 97.6074 36.7009L96.3875 32.0511C93.6379 32.4593 91.184 33.6933 89.9641 36.1754C88.7817 33.759 88.6456 31.9807 88.6081 29.9444V27.8283C95.0737 27.8283 101.497 27.847 107.967 27.847C107.874 30.0476 106.011 32.7127 103.571 33.7965H103.472V38.4838H109.187C108.84 40.4686 108.155 42.458 106.916 44.5412C106.189 45.7612 105.556 46.3007 104.753 47.4737C102.252 51.1194 100.108 53.0901 99.381 57.449C99.1745 58.6971 99.1933 59.2789 99.1464 60.6818L99.1417 60.6865ZM92.5869 13.4894C90.9682 15.4929 89.9969 18.0454 89.9969 20.8278V20.87H85.4644V20.8278C85.4644 16.9803 86.8063 13.4425 89.0444 10.6602L92.5869 13.4894ZM92.3007 20.87V20.8278C92.3007 18.5944 93.0796 16.5393 94.384 14.9299L97.9264 17.7592C97.2414 18.5944 96.8332 19.6641 96.8332 20.8278V20.87H92.3007ZM50.2414 27.8283V29.9444C50.279 31.9807 50.415 33.7637 51.5974 36.1754C52.8173 33.6933 55.2713 32.4593 58.0208 32.0511L59.2407 36.7009C56.585 36.9495 54.788 38.2868 54.1499 40.5342C55.0883 42.1436 55.9328 43.9594 56.1909 45.977C56.2566 46.4743 56.1674 46.9717 56.2097 47.4737H60.4231V52.1611H50.8467V47.9758C50.8139 47.3236 50.6778 46.4227 50.401 45.4703C49.9224 43.7999 49.1576 42.7395 48.4256 41.482C45.723 36.8369 44.5735 34.8334 44.6814 29.3156V27.8283H44.6673V23.1409H60.3199V27.8283H50.2414ZM30.7461 47.4737H38.0938C37.9155 46.3054 37.8451 45.3717 37.2633 44.1846C36.9912 43.6263 36.4281 42.8333 36.4281 42.8333C35.0205 40.3653 33.5097 38.3196 33.1343 35.4106C33.0029 34.383 32.8622 33.3508 32.9419 32.3138H38.4738C38.4128 33.1678 38.4738 34.8334 38.7178 35.6639C39.126 37.0856 40.0973 38.7044 40.8996 39.9102C43.56 43.9031 44.1746 45.1887 44.1746 52.1892C37.756 52.1892 31.3607 52.1705 24.928 52.1705V23.1409H42.1712V27.8283H30.7461V47.4737ZM62.8911 23.1644H80.885C81.0915 28.776 79.3507 31.5537 77.3425 35.4434C76.5871 36.912 76.2634 37.9489 76.1367 39.6522C76.0382 40.9753 76.3619 42.1858 76.4229 43.0398H70.891C70.8112 42.0029 70.6986 41.2474 70.7409 40.0979C70.8535 37.0293 71.4494 35.237 72.871 32.5156C73.1291 32.0182 73.5842 31.2722 73.5842 31.2722C74.0722 30.179 74.3631 29.0294 74.5367 27.8564H68.7045V52.1892H62.8864V23.1644H62.8911ZM123.808 33.2757C124.164 33.4211 125.084 33.5713 125.455 33.7214C127.557 27.9127 127.603 23.3098 132.577 23.1269C133.849 23.0799 134.707 23.2676 135.786 23.6852L134.576 28.1145C134.139 27.9315 133.68 27.8095 132.891 28.1145C131.958 28.4805 130.714 33.7824 130.114 35.5795C131.057 36.0158 131.995 36.6774 132.788 37.1091C132.971 37.2076 133.445 37.4938 133.614 37.7613C134.407 39.5114 136.213 49.7447 138.311 52.2174H131.953C130.315 48.1259 129.917 45.0104 128.556 40.8955C128.204 40.2433 125.14 39.2909 123.808 38.7747V52.1798H117.99V23.1644H123.808V33.2757ZM151.186 47.2955C150.749 44.18 150.13 39.746 149.806 36.5883C148.075 37.1372 145.597 38.0053 144.087 38.8217C143.777 39.7272 145.095 47.1125 145.762 47.4737C146.639 47.591 149.618 47.4737 151.186 47.2955ZM138.789 23.5914C140.525 23.1925 144.04 22.5075 147.141 22.4934C150.242 22.4794 153.17 23.0659 154.231 25.0694C155.286 27.0682 155.376 31.047 155.526 33.2569C155.929 39.1783 156.99 46.3617 157.933 52.2268C154.972 52.2268 142.2 52.452 141.797 51.9406C139.554 49.2051 137.827 40.0228 138.024 36.3114C138.034 36.2692 138.254 36.0018 138.428 35.9079C139.315 35.4293 142.777 33.8622 145.588 32.769C146.822 32.2904 148.53 31.6616 149.346 31.3332C149.304 30.8312 149.257 30.3338 149.22 29.8458C148.882 25.8576 140.675 28.4476 138.756 29.6159L138.794 23.5914H138.789Z" fill="#6C768A"/>
<path d="M25.918 61.249H24.928V54.957H27.457V55.8579H25.918V61.249Z" fill="#6C768A"/>
<path d="M33.594 61.2498H32.604L32.4351 60.0158H31.2949L31.126 61.2498H30.2111L31.2339 54.9531H32.5758L33.5987 61.2498H33.594ZM31.8627 55.9901L31.4216 59.1666H32.3131L31.8627 55.9901Z" fill="#6C768A"/>
<path d="M36.921 59.7938V56.4109C36.921 55.9182 37.0477 55.5381 37.3011 55.2707C37.5544 55.0033 37.911 54.8672 38.3802 54.8672C38.8494 54.8672 39.206 55.0033 39.4594 55.2707C39.7128 55.5381 39.8348 55.9229 39.8348 56.4109V57.0771H38.9011V56.3499C38.9011 55.9604 38.7368 55.7634 38.4084 55.7634C38.0799 55.7634 37.9157 55.9557 37.9157 56.3499V59.8642C37.9157 60.2489 38.0799 60.4413 38.4084 60.4413C38.7368 60.4413 38.9011 60.2489 38.9011 59.8642V58.9492H39.8348V59.7938C39.8348 60.2865 39.7081 60.6665 39.4594 60.934C39.206 61.2014 38.8494 61.3375 38.3802 61.3375C37.911 61.3375 37.5544 61.2014 37.3011 60.934C37.0477 60.6618 36.921 60.2818 36.921 59.7938Z" fill="#6C768A"/>
<path d="M45.1318 61.249H44.1417V55.8579H43.1095V54.957H46.1687V55.8579H45.1318V61.249Z" fill="#6C768A"/>
<path d="M50.5841 61.2498H49.5941V54.9531H51.0486C52.034 54.9531 52.5219 55.4692 52.5219 56.5109V57.1302C52.5219 58.1672 52.0293 58.688 51.0486 58.688H50.5794V61.2498H50.5841ZM50.5841 55.8587V57.7918H51.0533C51.2222 57.7918 51.3442 57.7449 51.424 57.651C51.5038 57.5572 51.5413 57.4071 51.5413 57.1959V56.4499C51.5413 56.2387 51.5038 56.0886 51.424 55.9948C51.3442 55.9009 51.2222 55.854 51.0533 55.854H50.5841V55.8587Z" fill="#6C768A"/>
<path d="M55.9329 59.7563V56.4484C55.9329 55.9463 56.0595 55.5569 56.3176 55.2801C56.5757 55.0033 56.9463 54.8672 57.4343 54.8672C57.9223 54.8672 58.2929 55.0033 58.551 55.2801C58.8091 55.5569 58.9358 55.9463 58.9358 56.4484V59.7563C58.9358 60.2583 58.8091 60.6478 58.551 60.9246C58.2929 61.2014 57.9223 61.3375 57.4343 61.3375C56.9463 61.3375 56.5757 61.2014 56.3176 60.9246C56.0595 60.6478 55.9329 60.2583 55.9329 59.7563ZM57.9457 59.822V56.3874C57.9457 55.9745 57.7768 55.7681 57.4343 55.7681C57.0918 55.7681 56.9229 55.9745 56.9229 56.3874V59.822C56.9229 60.2349 57.0918 60.4413 57.4343 60.4413C57.7768 60.4413 57.9457 60.2349 57.9457 59.822Z" fill="#6C768A"/>
<path d="M63.5385 61.249H62.5485V54.957H63.5385V57.5189H64.5989V54.957H65.5889V61.249H64.5989V58.4197H63.5385V61.249Z" fill="#6C768A"/>
<path d="M69.2015 59.7563V56.4484C69.2015 55.9463 69.3282 55.5569 69.5863 55.2801C69.8443 55.0033 70.215 54.8672 70.703 54.8672C71.191 54.8672 71.5616 55.0033 71.8197 55.2801C72.0777 55.5569 72.2044 55.9463 72.2044 56.4484V59.7563C72.2044 60.2583 72.0777 60.6478 71.8197 60.9246C71.5616 61.2014 71.191 61.3375 70.703 61.3375C70.215 61.3375 69.8443 61.2014 69.5863 60.9246C69.3282 60.6478 69.2015 60.2583 69.2015 59.7563ZM71.2191 59.822V56.3874C71.2191 55.9745 71.0502 55.7681 70.7077 55.7681C70.3652 55.7681 70.1962 55.9745 70.1962 56.3874V59.822C70.1962 60.2349 70.3652 60.4413 70.7077 60.4413C71.0502 60.4413 71.2191 60.2349 71.2191 59.822Z" fill="#6C768A"/>
<path d="M76.686 61.249H75.8226V54.957H77.2162L77.873 59.5271L78.5299 54.957H79.9235V61.249H78.9851V56.4866L78.2484 61.249H77.4226L76.686 56.4866V61.249Z" fill="#6C768A"/>
<path d="M84.4886 59.0203L85.7132 54.957H86.7126V61.249H85.8305V57.167L84.6059 61.249H83.6112V54.957H84.4886V59.0203Z" fill="#6C768A"/>
<path d="M93.2858 54.9578V61.2545H92.2958V58.5566H91.9533C91.7234 58.5566 91.5639 58.6129 91.47 58.7255C91.3762 58.8381 91.3293 59.0399 91.3293 59.3261V60.4756C91.3293 60.8181 91.3011 61.0762 91.2401 61.2498H90.2313C90.3017 61.0809 90.3392 60.8275 90.3392 60.485V59.3777C90.3392 58.6223 90.5598 58.1765 90.9961 58.0452V58.0264C90.5645 57.8575 90.3486 57.4446 90.3486 56.7877V56.403C90.3486 55.9103 90.4659 55.549 90.7052 55.3097C90.9398 55.0751 91.3105 54.9531 91.8172 54.9531H93.2811L93.2858 54.9578ZM91.9345 57.6557H92.2958V55.8587H91.8454C91.5076 55.8587 91.3433 56.0745 91.3433 56.5062V56.9895C91.3433 57.2241 91.3903 57.393 91.4888 57.4962C91.5826 57.5994 91.7328 57.6557 91.9392 57.6557H91.9345Z" fill="#6C768A"/>
<path d="M114.691 61.249H113.658L112.828 58.4807L112.424 59.2737V61.249H111.434V54.957H112.424V57.6643L113.668 54.957H114.672L113.494 57.2655L114.691 61.249Z" fill="#6C768A"/>
<path d="M118.435 58.3024L119.101 54.957H120.025L118.866 60.198C118.777 60.6062 118.622 60.8971 118.407 61.0754C118.191 61.2537 117.881 61.3429 117.482 61.3429C117.281 61.3429 117.098 61.31 116.933 61.2443V60.3904C117.069 60.4279 117.201 60.442 117.327 60.442C117.496 60.442 117.623 60.4138 117.703 60.3575C117.783 60.3012 117.848 60.198 117.891 60.0573L117.909 59.9306L116.675 54.957H117.693L118.43 58.3024H118.435Z" fill="#6C768A"/>
<path d="M121.799 61.2592C121.705 61.2592 121.611 61.2498 121.522 61.231V60.3583C121.569 60.3724 121.621 60.3771 121.677 60.3771C121.874 60.3771 122.015 60.3255 122.095 60.227C122.174 60.1284 122.221 59.9548 122.226 59.7014L122.381 54.9531H125.168V61.2498H124.178V55.854H123.315L123.207 59.6498C123.193 60.2129 123.08 60.6211 122.864 60.8791C122.648 61.1325 122.296 61.2592 121.804 61.2592H121.799Z" fill="#6C768A"/>
<path d="M128.552 59.0203L129.776 54.957H130.776V61.249H129.893V57.167L128.669 61.249H127.669V54.957H128.552V59.0203Z" fill="#6C768A"/>
<path d="M134.275 61.249H133.285V54.957H134.275V57.5189H135.336V54.957H136.321V61.249H135.336V58.4197H134.275V61.249Z" fill="#6C768A"/>
<path d="M141.957 61.2498H140.967L140.798 60.0158H139.658L139.489 61.2498H138.574L139.597 54.9531H140.939L141.961 61.2498H141.957ZM140.221 55.9901L139.78 59.1666H140.671L140.221 55.9901Z" fill="#6C768A"/>
<path d="M145.184 61.2498H144.194V54.9531H145.649C146.634 54.9531 147.122 55.4692 147.122 56.5109V57.1302C147.122 58.1672 146.629 58.688 145.649 58.688H145.18V61.2498H145.184ZM145.184 55.8587V57.7918H145.653C145.822 57.7918 145.944 57.7449 146.024 57.651C146.104 57.5572 146.141 57.4071 146.141 57.1959V56.4499C146.141 56.2387 146.104 56.0886 146.024 55.9948C145.944 55.9009 145.822 55.854 145.653 55.854H145.184V55.8587Z" fill="#6C768A"/>
<path d="M150.313 59.0203L151.533 54.957H152.532V61.249H151.65V57.167L150.43 61.249H149.431V54.957H150.313V59.0203Z" fill="#6C768A"/>
<path d="M157.928 54.9578V61.2545H156.938V58.5566H156.595C156.365 58.5566 156.206 58.6129 156.112 58.7255C156.018 58.8381 155.971 59.0399 155.971 59.3261V60.4756C155.971 60.8181 155.943 61.0762 155.882 61.2498H154.873C154.943 61.0809 154.981 60.8275 154.981 60.485V59.3777C154.981 58.6223 155.201 58.1765 155.638 58.0452V58.0264C155.206 57.8575 154.99 57.4446 154.99 56.7877V56.403C154.99 55.9103 155.108 55.549 155.347 55.3097C155.582 55.0751 155.952 54.9531 156.459 54.9531H157.923L157.928 54.9578ZM156.581 57.6557H156.942V55.8587H156.492C156.154 55.8587 155.99 56.0745 155.99 56.5062V56.9895C155.99 57.2241 156.037 57.393 156.135 57.4962C156.229 57.5994 156.379 57.6557 156.586 57.6557H156.581Z" fill="#6C768A"/>
</g>
<defs>
<clipPath id="clip0_11077_12433">
<rect width="133" height="50.6832" fill="white" transform="translate(24.928 10.6602)"/>
</clipPath>
</defs>
</svg>
