<svg width="230" height="72" viewBox="0 0 230 72" fill="none" xmlns="http://www.w3.org/2000/svg">
<g clip-path="url(#clip0_11077_12220)">
<path d="M48.5521 57.8324C48.5555 55.375 47.2368 53.0439 47.2351 50.5882C47.2351 43.382 49.5419 36.2018 47.7456 29.0718C47.1399 26.3635 45.5841 23.2899 44.769 20.7841C44.1512 18.9375 43.94 15.8623 43.9868 14.078C43.9712 13.6748 44.5319 13.6748 44.5371 13.2854C44.5925 12.6209 43.5282 11.5289 44.1719 11.0166C44.1719 10.4957 43.7687 9.97656 43.1561 9.97656H38.3831C37.7705 9.97656 37.3673 10.4957 37.3673 11.0166C38.0111 11.5306 36.9468 12.6226 37.0021 13.2854C37.0091 13.6731 37.568 13.6731 37.5525 14.078C37.5992 15.8623 37.3881 18.9393 36.7702 20.7841C35.9551 23.2882 34.3993 26.3617 33.7936 29.0718C31.9973 36.2018 34.292 43.3751 34.3042 50.5882C34.3042 53.0421 32.9855 55.375 32.9872 57.8324C32.9872 60.6325 35.2716 62.0204 40.7662 62.0204C46.2608 62.0204 48.5417 60.6342 48.5451 57.8324H48.5521Z" fill="#6C768A"/>
<path d="M56.4347 48.9748C56.4347 43.2102 58.2813 37.4664 56.8431 31.7641C56.3586 29.5975 55.1143 27.1383 54.4619 25.1343C53.9669 23.6581 53.7991 21.1972 53.8354 19.7695C53.8233 19.4476 54.2715 19.4476 54.2767 19.1361C54.32 18.6048 53.4702 17.7308 53.9842 17.3207C53.9842 16.9036 53.6623 16.4883 53.1726 16.4883H49.3549C48.8652 16.4883 48.5433 16.9036 48.5433 17.3207C49.059 17.7308 48.2075 18.6048 48.2508 19.1361C48.256 19.4476 48.7042 19.4476 48.6921 19.7695C48.7284 21.1972 48.5606 23.6581 48.0656 25.1343C47.9756 25.4129 47.8718 25.7019 47.761 25.9961C48.1539 27.0396 48.5035 28.0797 48.725 29.0696C50.5213 36.1996 48.2145 43.3781 48.2145 50.586C48.2145 53.0434 49.5349 55.3728 49.5314 57.8302C49.5314 57.9046 49.528 57.9773 49.5245 58.0482C50.0523 58.095 50.6304 58.1175 51.2637 58.1175C55.6248 58.1175 57.4835 57.0082 57.4869 54.7688C57.4904 52.8028 56.4347 50.939 56.433 48.9731L56.4347 48.9748Z" fill="#6C768A"/>
<path d="M25.1113 48.9787C25.1113 43.2141 23.2648 37.4703 24.7029 31.768C25.1874 29.6014 26.4317 27.1422 27.0842 25.1382C27.5791 23.662 27.747 21.2011 27.7106 19.7734C27.7227 19.4515 27.2745 19.4515 27.2693 19.14C27.2261 18.6087 28.0758 17.7347 27.5618 17.3246C27.5618 16.9075 27.8837 16.4922 28.3734 16.4922H32.1911C32.6809 16.4922 33.0027 16.9075 33.0027 17.3246C32.487 17.7347 33.3385 18.6087 33.2952 19.14C33.29 19.4515 32.8418 19.4515 32.8539 19.7734C32.8176 21.2011 32.9854 23.662 33.4804 25.1382C33.5704 25.4168 33.6742 25.7058 33.785 26C33.3921 27.0436 33.0425 28.0836 32.821 29.0735C31.0247 36.2035 33.3316 43.382 33.3316 50.5899C33.3316 53.0473 32.0111 55.3767 32.0146 57.8341C32.0146 57.9085 32.018 57.9812 32.0215 58.0522C31.4937 58.0989 30.9157 58.1214 30.2823 58.1214C25.9212 58.1214 24.0626 57.0121 24.0591 54.7727C24.0556 52.8068 25.1113 50.9429 25.113 48.977L25.1113 48.9787Z" fill="#6C768A"/>
<path d="M76.5353 30.4621C74.071 33.8731 68.4829 34.3594 65.5634 31.3049C62.2165 27.8714 63.2375 21.3142 67.8218 19.4608C70.7396 18.2476 74.6196 18.952 76.4419 21.624L74.3167 23.6609C73.4584 22.4841 72.3698 21.7244 70.8365 21.74C68.4154 21.6777 66.7991 23.7838 66.8337 26.0837C66.7766 28.356 68.3912 30.4292 70.7656 30.3738C72.3612 30.4188 73.4705 29.6937 74.4154 28.5238L76.5336 30.4621H76.5353Z" fill="#6C768A"/>
<path d="M82.6183 30.7564C84.4423 30.8048 85.3024 28.7437 84.7867 27.2052C84.1464 25.0524 81.0971 25.0454 80.4498 27.2C79.8978 28.7229 80.815 30.8187 82.6183 30.7564ZM77.4282 28.1536C77.4196 24.2805 81.239 22.0134 84.7278 23.4118C88.8155 25.1129 88.7965 31.2184 84.7175 32.9196C81.2494 34.3508 77.3954 31.9937 77.4282 28.1536Z" fill="#6C768A"/>
<path d="M98.0899 31.7414C96.676 33.3284 94.0594 33.7541 92.0605 32.9598C90.0998 32.2018 88.9593 30.2583 88.987 28.166C88.9438 25.3071 91.3389 22.9518 94.203 23.021C95.7865 23.0106 97.1121 23.5315 98.1176 24.6114L96.323 26.5462C94.7378 24.7118 91.9498 25.6446 91.9757 28.1678C91.9965 30.7083 94.7222 31.6116 96.3628 29.8014L98.0899 31.7397V31.7414Z" fill="#6C768A"/>
<path d="M105.313 28.7645C104.546 28.6105 102.966 28.6537 102.51 29.0293C102.165 29.2629 101.994 29.5917 101.994 30.0192C101.994 30.8152 102.473 31.2133 103.435 31.215C104.373 31.2289 105.339 30.5643 105.311 29.5485V28.7662L105.313 28.7645ZM105.31 32.1236C104.356 33.2242 102.726 33.5323 101.302 33.1706C99.3322 32.7016 98.6244 30.5764 99.4724 28.8199C100.518 26.7691 103.304 26.6688 105.317 26.911C105.486 25.0316 102.946 25.1614 101.824 25.5681C101.392 25.7343 101.023 25.9177 100.722 26.1236L99.5087 24.3083C101.348 22.8407 105.554 22.389 107.132 24.2235C107.833 25.0143 108.181 26.0769 108.179 27.4077L108.174 33.0321L105.393 33.0287L105.311 32.1218L105.31 32.1236Z" fill="#6C768A"/>
<path d="M110.933 25.8649L110.93 28.6875L117.461 28.6943L117.464 25.8717L110.933 25.8649Z" fill="#6C768A"/>
<path d="M132.995 30.4781C130.529 33.8873 124.941 34.3771 122.024 31.3209C118.675 27.8891 119.698 21.3319 124.28 19.4768C127.201 18.2636 131.075 18.9662 132.902 21.64L130.777 23.6769C129.917 22.5001 128.83 21.7404 127.297 21.7559C124.872 21.6936 123.257 23.7998 123.294 26.0997C123.237 28.372 124.851 30.4452 127.226 30.3898C128.823 30.4365 129.931 29.708 130.876 28.5398L132.995 30.4781Z" fill="#6C768A"/>
<path d="M139.08 30.7742C140.903 30.8226 141.766 28.7598 141.247 27.223C140.608 25.0684 137.559 25.065 136.91 27.2178C136.358 28.7407 137.277 30.8365 139.08 30.7742ZM133.89 28.1731C133.878 24.3 137.701 22.033 141.19 23.4313C145.279 25.129 145.26 31.2397 141.179 32.9391C137.713 34.3703 133.856 32.0115 133.89 28.1731Z" fill="#6C768A"/>
<path d="M145.923 19.2809L145.908 33.0234L148.876 33.0265L148.891 19.284L145.923 19.2809Z" fill="#6C768A"/>
<path d="M156.983 28.7722C156.216 28.6182 154.636 28.6615 154.181 29.037C153.835 29.2706 153.666 29.5994 153.666 30.0269C153.666 30.823 154.145 31.221 155.107 31.2227C156.043 31.2366 157.013 30.5738 156.985 29.5562V28.7739L156.983 28.7722ZM156.98 32.1313C156.028 33.2319 154.394 33.54 152.972 33.1783C151.002 32.7093 150.294 30.5841 151.142 28.8276C152.188 26.7786 154.972 26.6765 156.985 26.9188C157.154 25.0411 154.614 25.1691 153.494 25.5758C153.062 25.742 152.693 25.9254 152.392 26.1313L151.179 24.316C153.018 22.8467 157.225 22.3985 158.802 24.2312C159.501 25.022 159.851 26.0846 159.849 27.4154L159.842 33.0398L157.061 33.0364L156.98 32.1295V32.1313Z" fill="#6C768A"/>
<path d="M165.045 19.3142L168.165 19.3177L168.16 24.6081L174.132 24.6133L174.138 19.3229L177.258 19.3263L177.242 33.1087L174.122 33.1053L174.127 27.4445L168.155 27.4376L168.15 33.0983L165.03 33.0949L165.045 19.3125V19.3142Z" fill="#6C768A"/>
<path d="M179.944 19.332L185.109 19.3372C186.539 19.3407 187.757 19.6141 188.725 20.4361C190.486 22.0127 189.957 25.081 187.707 25.8079C189.258 26.2042 190.537 27.4277 190.492 29.1791C190.552 31.1796 189.242 32.5416 187.337 32.905C185.902 33.2788 181.486 33.0659 179.93 33.1144L179.945 19.332H179.944ZM184.993 30.7227C185.731 30.7262 186.655 30.5999 187.091 29.899C187.397 29.4819 187.416 28.4609 187.105 28.0178C186.804 27.5419 186.304 27.2996 185.762 27.1993C185.205 27.0747 183.55 27.1422 182.972 27.1248L182.969 30.721H184.993V30.7227ZM184.814 24.8543C185.473 24.8509 186.201 24.6622 186.53 24.0392C186.982 23.1307 186.535 21.9989 185.49 21.8275C185.019 21.6995 183.479 21.7704 182.979 21.7514L182.976 24.8509H184.815L184.814 24.8543Z" fill="#6C768A"/>
<path d="M205.058 30.598C202.575 34.0211 196.993 34.5074 194.055 31.4442C190.698 28.0004 191.722 21.4242 196.32 19.5655C198.141 18.7452 200.861 18.8387 202.58 19.7074C203.537 20.1764 204.331 20.8531 204.965 21.7339L202.834 23.7777C201.974 22.5975 200.88 21.836 199.344 21.8516C196.914 21.7876 195.294 23.9006 195.33 26.2075C195.272 28.4849 196.893 30.5668 199.273 30.5097C200.872 30.5547 201.988 29.8279 202.931 28.6528L205.058 30.598Z" fill="#6C768A"/>
<path d="M64.1583 38.5017H73.7337V41.108H67.2388V43.6312H69.8035C71.361 43.6312 72.5776 44.0102 73.4533 44.7682C74.329 45.5262 74.7668 46.5957 74.7668 47.9732C74.7668 49.3508 74.3221 50.3822 73.4325 51.1471C72.543 51.912 71.3057 52.2945 69.7204 52.2945H64.1566V38.5L64.1583 38.5017ZM67.2405 49.8976H69.4747C70.1912 49.8976 70.7363 49.7298 71.1084 49.3906C71.4804 49.0531 71.6673 48.5806 71.6673 47.9732C71.6673 47.3658 71.477 46.8881 71.098 46.5351C70.719 46.1838 70.1773 46.0073 69.4747 46.0073H67.2405V49.8959V49.8976Z" fill="#6C768A"/>
<path d="M78.7611 44.9132H75.5768V42.5977H81.7394V45.287H84.0757C85.2196 45.287 86.161 45.5933 86.8983 46.2077C87.6355 46.822 88.0041 47.6856 88.0041 48.8035C88.0041 49.6031 87.8207 50.2624 87.4555 50.7781C87.0904 51.2956 86.6041 51.678 85.9966 51.9255C85.3892 52.173 84.735 52.2976 84.0324 52.2976H78.7593V44.9149L78.7611 44.9132ZM81.7377 50.188H83.4959C84.0203 50.188 84.4166 50.0634 84.6848 49.8159C84.9531 49.5684 85.0881 49.2293 85.0881 48.8018C85.0881 47.85 84.5568 47.3741 83.4959 47.3741H81.7377V50.1863V50.188Z" fill="#6C768A"/>
<path d="M89.1636 49.7329H89.3505C89.681 49.7329 89.9683 49.6394 90.2088 49.4542C90.4494 49.2673 90.6467 48.9264 90.799 48.4297C90.9513 47.933 91.0603 47.2131 91.1295 46.2682C91.1987 45.3233 91.2403 44.0998 91.2541 42.5977H99.6301V52.2976H96.6518V44.9149H93.8811C93.8396 46.4032 93.7254 47.6337 93.5402 48.6062C93.3533 49.5788 93.0955 50.3472 92.7649 50.9131C92.4344 51.479 92.0312 51.8753 91.5552 52.102C91.0793 52.3305 90.5307 52.4429 89.9112 52.4429C89.6499 52.4429 89.4007 52.4222 89.167 52.3806V49.7329H89.1636Z" fill="#6C768A"/>
<path d="M101.819 42.5994H109.038V44.9149H104.798V52.2976H101.819V42.5977V42.5994Z" fill="#6C768A"/>
<path d="M109.763 49.5657C109.763 48.5049 110.142 47.6673 110.9 47.0529C111.658 46.4403 112.788 46.1322 114.292 46.1322C114.539 46.1322 114.806 46.1426 115.088 46.1634C115.37 46.1842 115.678 46.2153 116.008 46.2568V46.0699C116.008 45.0645 115.313 44.5609 113.919 44.5609C112.871 44.5609 111.976 44.8291 111.23 45.3673L110.155 43.4845C111.286 42.6849 112.665 42.2852 114.292 42.2852C115.766 42.2852 116.905 42.6226 117.704 43.2993C118.504 43.9742 118.904 44.926 118.904 46.153V52.2949H116.277L116.173 51.2409C115.856 51.6684 115.435 52.0024 114.911 52.2447C114.387 52.4852 113.767 52.6064 113.049 52.6064C112.069 52.6064 111.277 52.3312 110.671 51.7791C110.064 51.2271 109.761 50.4899 109.761 49.5657H109.763ZM112.575 49.2144C112.575 49.628 112.703 49.9378 112.957 50.1455C113.212 50.3531 113.575 50.4552 114.042 50.4552C114.608 50.4552 115.077 50.3064 115.449 50.0105C115.821 49.7146 116.008 49.3321 116.008 48.8631V47.9321C115.512 47.8628 115.063 47.8282 114.664 47.8282C113.989 47.8282 113.471 47.939 113.113 48.1588C112.755 48.3803 112.575 48.7316 112.575 49.2127V49.2144Z" fill="#6C768A"/>
<path d="M120.992 42.5967H123.723L123.889 43.6921C124.523 42.7541 125.509 42.2852 126.847 42.2852C127.688 42.2852 128.425 42.4894 129.06 42.8961C129.694 43.3027 130.187 43.8686 130.538 44.592C130.89 45.3154 131.066 46.1669 131.066 47.1464C131.066 48.2089 130.855 49.1521 130.434 49.9793C130.014 50.8066 129.434 51.4521 128.697 51.9124C127.96 52.3745 127.115 52.6046 126.163 52.6046C125.764 52.6046 125.381 52.5562 125.016 52.4593C124.651 52.3623 124.303 52.2326 123.971 52.0664V56.4309H120.992V42.5949V42.5967ZM128.065 47.3731C128.065 46.6012 127.878 45.9938 127.506 45.5525C127.134 45.1112 126.631 44.8914 125.997 44.8914C125.404 44.8914 124.917 45.0922 124.538 45.4919C124.159 45.8917 123.969 46.4368 123.969 47.1256V49.6488C124.493 49.9516 125.037 50.1039 125.603 50.1039C126.361 50.1039 126.961 49.8599 127.403 49.3702C127.844 48.8804 128.064 48.2159 128.064 47.3748L128.065 47.3731Z" fill="#6C768A"/>
<path d="M132.781 42.5977H135.635V48.3051L139.771 42.5977H142.562V52.2976H139.729V46.4032L135.572 52.2976H132.781V42.5977Z" fill="#6C768A"/>
<path d="M150.546 49.2362H148.746L147.174 52.2976H144.051L146.077 48.6582C145.042 48.0525 144.527 47.1422 144.527 45.9273C144.527 44.908 144.868 44.0963 145.551 43.4976C146.233 42.897 147.147 42.5977 148.291 42.5977H153.462V52.2976H150.546V49.2362ZM150.546 44.6865H148.808C147.842 44.6865 147.36 45.1001 147.36 45.9273C147.36 46.3271 147.481 46.6403 147.721 46.8687C147.962 47.0954 148.311 47.2097 148.767 47.2097H150.546V44.6865Z" fill="#6C768A"/>
</g>
<defs>
<clipPath id="clip0_11077_12220">
<rect width="181" height="52.0438" fill="white" transform="translate(24.0574 9.97656)"/>
</clipPath>
</defs>
</svg>
