<svg width="203" height="72" viewBox="0 0 203 72" fill="none" xmlns="http://www.w3.org/2000/svg">
<g clip-path="url(#clip0_11077_12253)">
<path fill-rule="evenodd" clip-rule="evenodd" d="M101.539 16.4146L101.524 16.1287L101.485 15.8582L101.423 15.5954L101.338 15.3404L101.222 15.1009L101.083 14.869L100.921 14.6449L100.728 14.4363L100.519 14.2431L100.303 14.0731L100.079 13.934L99.8391 13.818L99.5918 13.7253L99.3291 13.6635L99.0586 13.6249L98.7727 13.6094L98.4945 13.6249L98.224 13.6635L97.969 13.7253L97.7217 13.818L97.4821 13.934L97.258 14.0731L97.0416 14.2431L96.833 14.4363L96.6398 14.6449L96.4775 14.869L96.3384 15.1009L96.2225 15.3404L96.1375 15.5954L96.0757 15.8582L96.037 16.1287L96.0216 16.4146L96.037 16.7005L96.0757 16.971L96.1375 17.2337L96.2225 17.481L96.3384 17.7206L96.4775 17.9524L96.6398 18.1765L96.833 18.3852L97.0416 18.5784L97.258 18.7484L97.4821 18.8875L97.7217 19.0034L97.969 19.0961L98.224 19.158L98.4945 19.1966L98.7727 19.2121L99.0586 19.1966L99.3291 19.158L99.5918 19.0961L99.8391 19.0034L100.079 18.8875L100.303 18.7484L100.519 18.5784L100.728 18.3852L100.921 18.1765L101.083 17.9524L101.222 17.7206L101.338 17.481L101.423 17.2337L101.485 16.971L101.524 16.7005L101.539 16.4146ZM102.258 16.4146L102.242 16.7701L102.196 17.1178L102.119 17.4501L102.011 17.767L101.864 18.0761L101.686 18.3697L101.477 18.6479L101.238 18.9107L100.983 19.1502L100.705 19.3589L100.419 19.5366L100.117 19.6835L99.8005 19.7994L99.4759 19.8767L99.1359 19.923L98.7804 19.9385L98.4249 19.923L98.0849 19.8767L97.7603 19.7994L97.4435 19.6835L97.1421 19.5366L96.8562 19.3589L96.578 19.1502L96.3152 18.9107L96.0757 18.6479L95.867 18.3697L95.6893 18.0761L95.5425 17.767L95.4343 17.4501L95.357 17.1178L95.3106 16.7778L95.2952 16.4223L95.3106 16.0668L95.357 15.7191L95.4343 15.3868L95.5425 15.07L95.6893 14.7608L95.867 14.4672L96.0757 14.189L96.3152 13.9262L96.578 13.6867L96.8562 13.478L97.1421 13.3003L97.4435 13.1535L97.7603 13.0375L98.0849 12.9603L98.4249 12.9139L98.7804 12.8984L99.1359 12.9139L99.4759 12.9603L99.8005 13.0375L100.117 13.1535L100.419 13.3003L100.705 13.478L100.975 13.6867L101.23 13.9262L101.47 14.189L101.678 14.4672L101.856 14.7608L102.003 15.07L102.111 15.3868L102.188 15.7191L102.235 16.0668L102.25 16.4223L102.258 16.4146ZM100.396 15.6959L100.365 15.8118L100.318 15.9277L100.264 16.0359L100.195 16.1364L100.117 16.2291L100.025 16.3141L99.9473 16.376L99.8623 16.4301L99.7696 16.4764L99.6691 16.5151L99.6305 16.5305L99.6614 16.5692L99.6923 16.6078L99.7309 16.6464L99.7696 16.6928L99.8082 16.7469L99.8546 16.8087L99.9009 16.8705L99.9473 16.9324L99.9937 16.9942L100.032 17.056L100.071 17.1101L100.11 17.1642L100.141 17.2183L100.171 17.2724L100.195 17.3188L100.705 18.2384H99.7387L99.3445 17.5583L99.2518 17.396L99.1668 17.2492L99.0895 17.1256L99.0122 17.0174L98.9504 16.9324L98.8886 16.8628L98.8422 16.8164L98.8036 16.7855L98.765 16.7623L98.7186 16.7392L98.6645 16.7237L98.5949 16.7083L98.5177 16.6928H98.4327L98.3322 16.6773H98.224H98.1081V18.2384H97.2967V14.2972H99.0432L99.2209 14.3126L99.3832 14.3358L99.5377 14.3667L99.6846 14.4131L99.8159 14.4672L99.9319 14.5367L100.04 14.614L100.133 14.699L100.21 14.7918L100.28 14.8845L100.334 14.9849L100.38 15.0931L100.411 15.2091L100.426 15.325V15.4486V15.5723L100.411 15.6959H100.396ZM98.1004 15.039V15.9355H98.5486H98.7109H98.8577L98.9813 15.92H99.0895L99.1823 15.8968L99.2595 15.8814L99.3136 15.8659H99.3445L99.3677 15.8427L99.3909 15.8273L99.4141 15.8118L99.4373 15.7964L99.4605 15.7732L99.4836 15.75L99.5068 15.7191L99.53 15.6882L99.5455 15.6573L99.5609 15.6264V15.5954L99.5764 15.5645V15.5336L99.5841 15.5027V15.4718V15.4254V15.3791L99.5686 15.3404L99.5532 15.3018L99.5377 15.2632L99.5146 15.2245L99.4836 15.1859L99.4527 15.155L99.4218 15.1318L99.3755 15.1086L99.2982 15.0854L99.1977 15.0622L99.0818 15.0468L98.9427 15.0313H98.7804L98.5949 15.0236H98.0926L98.1004 15.039Z" fill="#6C768A"/>
<path fill-rule="evenodd" clip-rule="evenodd" d="M112.977 28.3307V13.2074H121.454V16.144H116.625V18.9182H120.952V21.963H116.625V25.2628H121.454V28.3307H112.977ZM123.564 28.3307V13.2074H127.212V20.0929L129.924 13.2074H133.657L130.465 20.2629L133.742 28.3307H129.901L127.212 21.082V28.3307H123.564ZM141.176 22.473H144.762C144.754 23.5472 144.715 24.3277 144.646 24.8068C144.576 25.286 144.429 25.796 144.205 26.3369C144.004 26.8238 143.695 27.2334 143.278 27.5811C142.861 27.9289 142.343 28.1839 141.732 28.3616C141.122 28.5394 140.449 28.6244 139.715 28.6244C138.456 28.6244 137.428 28.3848 136.616 27.9134C135.813 27.442 135.256 26.7388 134.955 25.8115C134.8 25.3401 134.677 24.5982 134.592 23.5781C134.499 22.558 134.46 21.4143 134.46 20.1392C134.46 19.1037 134.499 18.2305 134.576 17.5272C134.654 16.824 134.785 16.229 134.963 15.7344C135.14 15.2398 135.388 14.7993 135.705 14.3975C136.477 13.3928 137.845 12.8828 139.8 12.8828C140.936 12.8828 141.887 13.1146 142.675 13.5783C143.456 14.0343 144.012 14.6989 144.337 15.5566C144.576 16.1517 144.723 17.1254 144.769 18.47H141.23C141.199 17.5968 141.091 16.9322 140.898 16.4762C140.697 15.943 140.31 15.6803 139.738 15.6803C139.12 15.6803 138.718 15.943 138.51 16.4762C138.417 16.6926 138.347 16.9399 138.301 17.2104C138.208 17.9368 138.162 19.1192 138.162 20.7575C138.162 21.1516 138.177 21.9089 138.201 23.0294C138.239 24.0495 138.347 24.7605 138.525 25.1546C138.657 25.4173 138.811 25.6028 138.981 25.711C139.159 25.8192 139.398 25.8656 139.708 25.8656C140.272 25.8656 140.666 25.6646 140.882 25.2551C141.006 25.0387 141.091 24.7759 141.122 24.4745C141.153 24.1732 141.176 23.609 141.176 22.7744V22.4576V22.473ZM148.865 28.3307V16.144H145.944V13.2074H155.581V16.144H152.505V28.3307H148.857H148.865ZM157.057 28.3307V13.2074H160.635C162.458 13.2074 163.795 13.3774 164.638 13.7097C166.16 14.3125 166.917 15.688 166.917 17.8286C166.917 18.7714 166.747 19.5983 166.399 20.2938C166.052 20.997 165.557 21.538 164.908 21.9244C164.475 22.1562 164.004 22.3185 163.494 22.4035C162.984 22.4885 162.242 22.5349 161.276 22.5349H160.696V28.3307H157.049H157.057ZM160.704 19.7219C160.781 19.7374 160.897 19.7451 161.052 19.7451C161.848 19.7451 162.42 19.5906 162.76 19.2892C163.1 18.9878 163.277 18.4778 163.277 17.7745C163.277 17.2722 163.138 16.8549 162.86 16.5381C162.744 16.3912 162.621 16.2676 162.481 16.1749C162.273 16.0667 161.678 15.9971 160.696 15.9662V19.7297L160.704 19.7219ZM167.435 28.3307L170.959 13.0142H175.286L178.517 28.3307H174.792L174.336 25.3091H171.477L171.021 28.3307H167.435ZM171.871 22.4499H173.965L172.929 15.5644L171.871 22.4499ZM112.977 47.6039V32.4728H123.216V47.6039H119.546V35.6026H116.625V47.6039H112.977ZM124.584 47.6039L128.108 32.2874H132.436L135.666 47.6039H131.941L131.485 44.5823H128.626L128.17 47.6039H124.584ZM129.02 41.723H131.114L130.079 34.8375L129.02 41.723ZM137.049 47.6039V32.4728H140.697V39.3583L143.409 32.4728H147.142L143.95 39.5283L147.227 47.5962H143.386L140.697 40.3475V47.5962H137.049V47.6039Z" fill="#6C768A"/>
<path fill-rule="evenodd" clip-rule="evenodd" d="M69.6773 47.5885V12.8906H92.8994V47.5885H86.0216V19.3588H76.5009V47.5885H69.6695H69.6773ZM44.7473 47.5885V12.8906H63.8196V19.3588H51.571V26.337H62.6449V32.612H51.571V41.2595H63.8196V47.5885H44.7473Z" fill="#6C768A"/>
<path fill-rule="evenodd" clip-rule="evenodd" d="M33.7584 19.212H40.3425V12.8906H33.9748C28.7817 12.8906 24.5237 17.195 24.5237 22.4577V49.5437C24.5237 54.8063 28.7817 59.1107 33.9825 59.1107H169.065C174.266 59.1107 178.524 54.8063 178.524 49.5437V32.102H172.28V49.7678C172.28 51.4293 170.935 52.7894 169.289 52.7894H33.7584C32.1124 52.7894 30.7678 51.4293 30.7678 49.7678V22.2413C30.7678 20.5798 32.1124 19.2197 33.7584 19.2197" fill="#6C768A"/>
</g>
<defs>
<clipPath id="clip0_11077_12253">
<rect width="154" height="46.2201" fill="white" transform="translate(24.5237 12.8906)"/>
</clipPath>
</defs>
</svg>
