<svg width="229" height="72" viewBox="0 0 229 72" fill="none" xmlns="http://www.w3.org/2000/svg">
<g clip-path="url(#clip0_11077_12250)">
<path d="M42.9855 38.0803C42.9855 37.4603 42.8055 36.9403 42.4455 36.5403L40.7255 35.1803C41.7355 34.4903 42.3355 34.0203 42.5255 33.7803C42.8355 33.3703 42.9955 32.8603 42.9955 32.2403V26.0703H34.1755V45.1403H42.9955V38.0803H42.9855ZM33.0055 18.0703H24.1555V45.1403H33.0055V18.0703ZM53.2355 26.0703H44.4155V45.1403H53.2355V26.0703ZM62.7555 29.3703C62.5155 28.6103 62.2055 28.0103 61.8255 27.5803C60.9355 26.5803 59.4755 26.0703 57.4455 26.0703H54.2555V35.6003H63.0455C63.0455 32.0603 62.9455 29.9803 62.7555 29.3603M82.8955 31.4103C82.8955 27.8503 81.2855 26.0703 78.0555 26.0703H74.0755V45.1103H77.7655C81.1855 45.1103 82.8955 43.2703 82.8955 39.5903V31.4103ZM73.1655 26.0703H69.1855C65.9555 26.0703 64.3455 27.8503 64.3455 31.4103V39.5903C64.3455 43.2703 66.0555 45.1103 69.4755 45.1103H73.1655V26.0703ZM103.026 31.6003C103.026 27.8903 101.166 26.0403 97.4355 26.0403H94.1755V45.1103H103.026V31.6003ZM93.1955 26.0403H84.4055V45.1103H93.1955V26.0403ZM123.056 31.4103C123.056 27.8503 121.446 26.0703 118.216 26.0703H114.236V45.1103H117.926C121.346 45.1103 123.056 43.2703 123.056 39.5903V31.4103ZM113.336 26.0703H109.356C106.126 26.0703 104.516 27.8503 104.516 31.4103V39.5903C104.516 43.2703 106.226 45.1103 109.646 45.1103H113.336V26.0703ZM142.166 27.5403C141.296 26.5603 139.836 26.0703 137.776 26.0703H134.546V31.9203H143.456C143.456 29.9803 143.016 28.5203 142.156 27.5403M143.306 37.6503C143.306 35.6403 142.256 34.3603 140.146 33.8103L134.986 32.4803C133.736 32.1703 133.116 31.7203 133.116 31.1203V26.0703H130.976C128.886 26.0703 127.456 26.2703 126.696 26.6803C125.336 27.4203 124.666 28.9003 124.666 31.1303V33.5303C124.666 34.6103 124.896 35.4503 125.346 36.0803C125.796 36.7003 126.536 37.1403 127.566 37.4103L133.086 38.8403L133.946 39.0903L134.186 39.2003C134.446 39.3903 134.566 39.7403 134.566 40.2503V45.1203H137.156C139.216 45.1203 140.606 44.9203 141.326 44.5103C142.646 43.7703 143.306 42.2803 143.306 40.0603V37.6603V37.6503ZM133.106 39.2303H124.656C124.656 41.2403 125.056 42.7003 125.866 43.6003C126.746 44.6003 128.136 45.1103 130.056 45.1103H133.106V39.2303ZM135.646 30.9203V27.0503H138.046C139.576 27.0503 140.656 27.3903 141.306 28.0503C141.946 28.7203 142.276 29.6703 142.276 30.9103H135.656L135.646 30.9203ZM140.466 43.7203C139.886 43.9603 138.606 44.0803 136.616 44.0803H135.536V39.7603C135.536 38.9403 135.086 38.4003 134.186 38.1403L128.266 36.5003C127.286 36.2103 126.606 35.8603 126.236 35.4403C125.866 35.0203 125.676 34.3203 125.676 33.3503V31.6303C125.676 29.5803 126.256 28.2403 127.416 27.6203C128.126 27.2403 129.406 27.0503 131.266 27.0503H131.976V31.4203C131.976 32.0403 132.136 32.4803 132.456 32.7503C132.696 32.9703 133.166 33.1603 133.846 33.3203L139.466 34.7403C141.316 35.1903 142.246 36.3003 142.246 38.0703V40.0403C142.246 42.0003 141.646 43.2303 140.446 43.7303M129.826 44.0803C128.336 44.0803 127.276 43.7503 126.636 43.1003C125.996 42.4503 125.686 41.4903 125.686 40.2403H132.206V44.0803H129.826ZM163.726 31.4103C163.726 27.8503 162.106 26.0703 158.876 26.0703H154.856V45.1103H158.596C162.016 45.1103 163.736 43.2703 163.736 39.5903V31.4103H163.726ZM153.716 26.0703H144.866V53.9303H153.716V26.0703ZM158.776 44.0803H156.046V27.2903H158.996C161.396 27.2903 162.586 28.6203 162.586 31.2703V39.9203C162.586 42.6903 161.316 44.0803 158.776 44.0803ZM146.006 27.2903H152.576V52.7203H146.006V27.2903ZM184.406 26.0703H175.586V45.1403H184.406V26.0703ZM174.316 26.0703H171.086C169.026 26.0703 167.566 26.5503 166.726 27.5203C165.876 28.4903 165.446 29.9303 165.446 31.8403H174.316V26.0703ZM174.316 33.2503H169.866C168.426 33.2503 167.336 33.7003 166.576 34.6003C165.826 35.5003 165.446 36.6803 165.446 38.1403V39.9703C165.446 43.4203 167.106 45.1403 170.436 45.1403H174.316V33.2503ZM176.706 27.2103H183.306V44.0603H176.706V27.2103ZM166.696 30.8403C166.696 30.3203 166.776 29.7903 166.946 29.2603C167.426 27.8003 168.726 27.0703 170.856 27.0703H173.226V30.8303H166.696V30.8403ZM170.306 44.0503C167.806 44.0503 166.556 42.6903 166.556 39.9703V37.9703C166.556 36.8303 166.846 35.9303 167.426 35.2903C168.006 34.6503 168.826 34.3303 169.876 34.3303H173.236V44.0503H170.316H170.306ZM204.526 31.6003C204.526 27.8903 202.656 26.0403 198.916 26.0403H195.646V45.1103H204.516V31.6003H204.526ZM194.696 26.0403H185.906V45.1103H194.696V26.0403ZM196.756 44.0803V27.1303H199.166C201.906 27.1303 203.266 28.5703 203.266 31.4703V44.0903H196.746L196.756 44.0803ZM187.016 27.1803H193.616V44.0803H187.016V27.1803Z" fill="#6C768A"/>
</g>
<defs>
<clipPath id="clip0_11077_12250">
<rect width="180.37" height="35.86" fill="white" transform="translate(24.1555 18.0703)"/>
</clipPath>
</defs>
</svg>
