<svg width="109" height="72" viewBox="0 0 109 72" fill="none" xmlns="http://www.w3.org/2000/svg">
<g clip-path="url(#clip0_11077_12292)">
<path d="M61.1352 30.6157C59.0022 32.8356 59.1949 34.1147 56.9448 34.978C56.3799 35.1915 55.6866 35.4239 54.8005 35.628C54.2791 34.0183 52.9679 32.42 51.5812 32.42C50.6214 32.42 49.5105 32.9206 48.2315 33.4855C46.7295 34.1468 45.3541 34.9044 44.9158 35.1915L45.5034 35.9794C45.9512 35.7338 47.2415 35.0933 48.5319 34.5397C49.6522 34.0599 50.6649 33.665 51.345 33.665C52.4446 33.665 53.1587 34.9138 53.5536 35.9151C52.114 36.2571 49.7467 36.3402 49.0326 36.3402C48.7019 36.3402 48.5829 36.395 48.4677 36.4914C48.36 36.5877 48.275 36.7559 48.2221 36.992L48.137 37.3548H48.9041C52.8904 37.3548 56.6577 36.7256 59.0778 35.2539C59.4198 35.3483 59.7183 35.4126 60.1018 35.4126C61.4866 35.4126 62.9187 34.6569 63.8123 33.9635C64.1335 33.7179 64.2072 33.495 64.2072 33.2494C64.2072 33.1322 64.1958 33.0245 64.1845 32.9169L64.1429 32.5012C62.8639 33.5139 61.7984 34.2715 60.4759 34.2715C60.2416 34.2715 60.0697 34.2507 59.9318 34.2072C61.2221 32.1385 62.3746 30.304 65.2009 28.8115C64.9024 28.6301 64.4755 28.3524 64.2525 28.2031C63.1511 28.6849 62.0629 29.6446 61.1352 30.6157Z" fill="#6C768A"/>
<path d="M56.7309 31.2332C55.824 31.2332 55.909 29.6859 55.8448 28.4617C52.6463 28.7696 50.6417 29.7199 48.4426 30.9026L48.6996 31.8831C50.6927 30.6891 52.6122 30.0071 54.6489 29.8049C54.6716 30.9763 55.1722 32.5463 56.506 32.5463C57.9343 32.5463 59.6706 30.3056 61.7091 27.6814L62.2437 26.988C61.966 26.7745 61.6581 26.5818 61.4654 26.4023C59.3758 29.0908 57.564 31.2332 56.7309 31.2332Z" fill="#6C768A"/>
<path d="M51.1414 14.5758C50.6181 14.6816 50.2346 14.7779 49.7755 14.7779C49.477 14.7779 49.135 14.7345 48.7307 14.64C48.4209 14.5644 48.0903 14.5002 47.6236 14.5002C46.781 14.5002 45.8742 14.8195 45.2545 15.4165C44.1228 16.4934 44.0605 17.6553 43.9849 18.6887C43.8904 20.066 43.6335 20.408 42.8891 21.4093C42.2808 22.2292 41.4476 23.308 40.809 24.4491C41.0131 24.5436 41.6838 24.9063 41.918 25.0348C42.6529 23.9277 43.6769 22.5617 44.3476 21.5264C44.956 20.5893 45.2016 20.1831 45.2431 18.9249C45.2545 18.7114 45.2545 18.5092 45.2753 18.3052C45.33 17.6553 45.5001 16.994 46.1198 16.3857C46.577 15.9247 47.2382 15.6923 47.9013 15.6923C48.5399 15.6923 48.914 15.8737 49.4675 15.8737C49.8624 15.8737 50.1515 15.7773 50.4046 15.6829L50.6087 15.6073L50.1175 16.7806L51.268 17.2491C50.5331 17.7063 48.9215 19.6787 48.9215 22.0157C48.9215 22.8564 49.05 23.6348 49.2314 24.3282C49.2522 24.4019 49.2937 24.4774 49.4109 24.4774C49.5186 24.4774 49.5941 24.4132 49.6036 24.298L49.6149 24.0524C49.6489 23.3382 49.6999 22.2084 49.9871 21.1958C50.467 19.4898 51.7573 17.8896 53.0496 17.1206L51.2151 16.3215L52.0029 14.3906L51.1414 14.5758Z" fill="#6C768A"/>
<path d="M56.6864 6.80078C55.9931 6.80078 55.8022 7.47147 55.8022 7.84555C55.8022 8.14405 55.908 8.49735 56.2821 8.49735C56.5901 8.49735 56.9736 8.27441 57.2721 8.02692C57.5612 7.79265 57.752 7.60183 57.752 7.40913C57.752 7.22965 57.5819 7.05772 57.325 6.94059C57.1474 6.85368 56.9226 6.80078 56.6864 6.80078Z" fill="#6C768A"/>
<path d="M52.4435 20.3438L51.9315 21.3262H57.3802L56.9759 20.3438H52.4435Z" fill="#6C768A"/>
<path d="M46.1419 11.3017C46.4291 11.1298 46.6747 10.8861 46.6747 10.6291C46.6747 10.512 46.6236 10.3949 46.5046 10.2872C46.3025 10.0964 46.0247 10 45.7905 10C45.2558 10 44.98 10.5007 44.98 10.9597C44.98 11.3112 45.1519 11.5133 45.4806 11.5133C45.6828 11.5152 45.9189 11.4283 46.1419 11.3017Z" fill="#6C768A"/>
<path d="M77.8357 30.8695L78.3571 31.2322C78.4308 31.2851 78.4856 31.3172 78.5498 31.3172C78.6575 31.3172 78.7312 31.2114 78.7312 31.1264C78.7312 31.0735 78.7085 31.0187 78.6462 30.9658C77.0875 29.547 75.4136 27.8202 73.8455 26.1557C72.6194 24.8446 71.3611 23.4597 70.2521 22.0617C70.1766 21.9653 70.1142 21.9219 70.0273 21.9219C69.9007 21.9219 69.8365 22.0069 69.8365 22.1032C69.8365 22.2525 69.9423 22.432 70.2087 22.8816C71.0173 24.257 72.0205 25.6437 73.258 26.9436C74.5918 28.3605 76.1599 29.683 77.8357 30.8695Z" fill="#6C768A"/>
<path d="M71.1272 50.1406H69.8576C69.527 50.1406 69.3041 50.2578 69.1435 50.4505C69.015 50.6092 68.93 50.8132 68.93 51.0909V65.0489C68.93 65.3266 69.015 65.5287 69.1435 65.6893C69.3041 65.882 69.527 65.9992 69.8576 65.9992H71.1272C71.4578 65.9992 71.6808 65.882 71.8414 65.6893C71.9698 65.5306 72.0548 65.3266 72.0548 65.0489V51.0909C72.0548 50.8132 71.9698 50.6111 71.8414 50.4505C71.6808 50.2578 71.4578 50.1406 71.1272 50.1406Z" fill="#6C768A"/>
<path d="M49.0859 17.1977C49.0859 17.0598 49.0236 16.92 48.863 16.8142C48.6835 16.6857 48.4587 16.6328 48.2565 16.6328C47.8069 16.6328 47.6274 16.8992 47.5405 17.1769C47.4989 17.3054 47.4895 17.432 47.4895 17.5397C47.4895 17.9232 47.6595 18.1896 47.9373 18.1896C48.3189 18.1896 49.0859 17.6568 49.0859 17.1977Z" fill="#6C768A"/>
<path d="M34.3344 30.2966L34.4119 30.7538C34.4421 30.9465 34.5177 31.1052 34.6764 31.1808C34.8691 31.2771 35.1468 31.2884 35.6267 31.2884C36.8415 31.2884 37.7276 31.1392 38.2396 31.0107C39.5507 32.9604 41.3531 33.7086 43.0912 33.7086C44.5743 33.7086 46.0763 33.1645 47.5159 32.3748L47.2476 31.4037C45.842 32.1953 44.3816 32.7167 43.0912 32.7167C41.6516 32.7167 40.3707 32.097 39.3051 30.4874C38.8574 29.8072 38.506 28.9533 38.0771 28.1957C37.5651 27.3002 37.0115 26.8203 36.0423 26.8203C35.1563 26.8203 34.2929 27.1849 33.3766 27.5779L33.4182 27.7801C33.4918 28.1107 33.6222 28.345 33.932 28.345C34.0699 28.345 34.2098 28.2807 34.2834 28.2599C34.7954 28.0993 35.1676 27.9614 35.6909 27.9614C36.4901 27.9614 36.8736 28.43 37.4177 29.5824L37.6218 30.0094C37.0663 30.1983 35.7665 30.2966 34.7973 30.2966H34.3344Z" fill="#6C768A"/>
<path d="M78.9025 54.1602C75.2014 54.1602 73.1213 57.0507 73.1213 60.1C73.1213 63.3533 75.3507 66.2118 78.9214 66.2118C80.7049 66.2118 82.4524 65.5392 83.4556 64.3565C83.8921 63.8427 84.2454 63.1285 84.2454 62.6921C84.2454 62.5429 84.2132 62.4144 84.1282 62.3199C84.0432 62.2122 83.9147 62.148 83.6918 62.148H81.9763C81.6344 62.148 81.4001 62.2746 81.2282 62.5334C80.7275 63.2683 80.0039 63.6537 78.9365 63.6537C77.3363 63.6537 76.301 62.4371 76.2273 61.1032H83.671C83.9998 61.1032 84.2378 61.0295 84.3965 60.869C84.5779 60.6989 84.6629 60.4533 84.6629 59.9961C84.6629 58.5981 84.2265 57.1471 83.3083 56.04C82.3674 54.9178 80.9184 54.1602 78.9025 54.1602ZM76.2462 58.8304C76.386 57.5193 77.3892 56.5387 78.912 56.5387C80.4064 56.5387 81.4398 57.5193 81.5796 58.8304H76.2462Z" fill="#6C768A"/>
<path d="M74.5406 9.34897H74.7125C74.7125 9.42265 74.7012 9.50956 74.7012 9.58324C74.7012 10.7886 75.3209 11.6841 76.8455 11.6841C77.7826 11.6841 79.2562 11.2137 80.6411 10.7451C81.7916 10.3503 82.8477 9.94598 83.3711 9.79673V8.5158C82.774 8.69717 81.5592 9.16571 80.301 9.60213C78.9785 10.0612 77.6768 10.4788 76.9192 10.4788C76.0879 10.4788 75.8536 10.0197 75.8536 9.36787C75.8536 8.02459 76.6963 6.09565 77.229 4.99609H75.9387C75.268 6.2978 72.623 10.4674 71.1947 12.1942L72.0146 13.0803C72.7798 12.2282 73.6224 10.7773 74.5406 9.34897Z" fill="#6C768A"/>
<path d="M65.5054 9.32988C64.4285 8.29456 63.6086 7.12133 63.0852 6.55643C61.9214 5.28684 60.4195 3.71875 57.9464 3.71875C55.5565 3.71875 53.9789 5.27551 53.467 6.62067C53.3158 7.00608 53.2006 7.47273 53.0929 7.64465C52.8586 8.02818 51.8025 9.83054 51.3661 10.5447H53.3385L52.3787 12.3584C53.4972 12.1109 54.2963 11.9295 55.3638 11.9295C56.3122 11.9295 56.9961 12.1543 57.2946 12.7514C57.8501 13.8604 57.8501 17.2176 58.7871 19.7473C59.66 22.1259 61.7949 24.4516 64.1942 26.2294L64.3 26.2634C64.4172 26.2634 64.4908 26.1765 64.4908 26.0915C64.4908 26.0273 64.4701 25.9857 64.4172 25.9309C62.4108 23.9264 60.7803 21.7084 59.9075 19.2769C59.0441 16.9096 59.182 13.5826 58.4244 12.0996C57.9237 11.119 56.8582 10.8621 55.8758 10.8621C55.088 10.8621 54.3511 11.0227 54.0092 11.0964L54.8745 9.63406H53.4122C53.7201 9.08995 54.0432 8.58929 54.2019 8.29079C54.3398 8.03384 54.3946 7.71456 54.5646 7.27814C55.1201 5.88008 56.3462 4.99401 57.9464 4.99401C59.9509 4.99401 61.1242 6.28438 62.288 7.57664C62.8207 8.17176 63.6974 9.42057 64.7081 10.3482C65.4015 10.9887 66.7221 11.7009 68.7587 13.8037C69.9338 15.0185 71.2979 16.5979 72.7375 18.7101C77.8877 26.2502 81.2695 32.8929 83.1549 38.0751L83.1228 38.0959C77.7157 34.427 73.036 30.962 69.2594 26.6866C66.5823 23.6468 64.2585 20.129 62.2313 15.6363C62.0934 15.3397 61.9743 15.0619 61.8459 14.7748C61.7949 14.6576 61.7401 14.6255 61.6551 14.6255C61.5474 14.6255 61.4718 14.6992 61.4718 14.805C61.4718 14.9221 61.5266 15.1791 61.6418 15.6892C62.7206 20.3387 65.7057 24.5083 68.8947 27.9751C72.0725 31.4192 75.6678 34.3854 78.6207 36.5373L80.9256 43.1289C80.9785 43.2895 81.0409 43.4577 81.0409 43.6201C81.0409 43.7373 81.0106 43.8336 80.9369 43.8979C80.8727 43.9602 80.7877 43.9942 80.595 43.9942H79.9016C79.6031 43.9942 79.486 43.9508 79.3802 43.8658C79.2725 43.7807 79.1969 43.6523 79.1459 43.503C78.9438 42.8852 77.7252 39.4184 77.4928 38.7156C77.4512 38.5871 77.3757 38.5456 77.2907 38.5456C77.1849 38.5456 77.1112 38.6306 77.1112 38.7269C77.1112 38.812 77.1433 38.9083 77.1962 39.2068C77.5041 40.7844 77.8669 42.5565 78.0161 43.2272C78.0823 43.5389 78.1559 43.8261 78.1559 44.0396C78.1559 44.2304 78.1125 44.3381 77.9538 44.4968L77.2378 45.2222C77.0677 45.3942 76.9733 45.4357 76.8335 45.4357C76.6615 45.4357 76.5236 45.3205 76.4594 45.022C75.6489 41.2359 74.4227 36.5411 74.1035 35.2412C74.0279 34.9522 73.975 34.7916 73.805 34.7916C73.6557 34.7916 73.6009 34.8993 73.6009 35.0277C73.6009 35.1241 73.6217 35.2412 73.6349 35.3262C73.8257 36.6695 74.6041 41.5665 75.4467 46.0346C75.596 46.8036 75.8832 47.2287 76.5463 47.2287C76.8448 47.2287 77.132 47.1115 77.3983 46.8527C77.8348 46.4163 77.9632 46.2991 78.4866 45.7871C78.8606 45.4244 79.1157 45.2751 79.7543 45.2751H81.3337C81.7059 45.2751 81.9099 45.1807 82.0894 45.0088C82.2613 44.8482 82.3671 44.6252 82.3671 44.306C82.3671 43.9772 82.2821 43.7089 82.165 43.3783C81.7607 42.292 80.459 38.6136 80.0773 37.5783L80.1076 37.5575C81.4414 38.5701 83.3817 39.8605 84.2356 39.8605C84.5001 39.8605 84.6607 39.7434 84.6607 39.3277C84.6607 37.3648 81.3979 29.2938 73.9429 18.1811C69.9754 12.262 66.4878 10.267 65.5054 9.32988Z" fill="#6C768A"/>
<path d="M74.8695 16.732C76.2147 16.1765 77.4181 15.8157 78.5044 15.8157C80.0291 15.8157 81.2779 15.8157 83.3674 15.3245V14.3439C82.1942 14.5574 80.9473 14.8125 80.1368 14.8125C79.6569 14.8125 79.5171 14.7482 79.5171 14.5895C79.5171 14.4951 79.5813 14.429 79.7627 14.3553C81.0417 13.8112 83.3353 12.893 84.6578 12.4131V11.1133C82.0015 12.0938 77.3425 14.0228 74.1648 15.7514C74.2517 15.8554 74.8071 16.6356 74.8695 16.732Z" fill="#6C768A"/>
<path d="M38.4299 16.5573C36.928 18.337 36.1382 19.7785 34.8252 22.977C35.0387 22.9544 35.3485 22.9336 35.6905 22.9336C35.8624 22.9336 36.0003 22.9336 36.2233 22.9449L36.382 22.603C37.1188 21.0235 38.1106 18.8924 39.4974 17.2507L39.9772 16.6858C41.4074 15.01 42.2916 14.0181 42.847 11.7378C43.0397 10.9273 43.1984 10.2018 43.7426 9.68035C44.2338 9.21181 44.8534 9.00777 45.4807 9.00777C46.0135 9.00777 46.4102 9.13624 46.9845 9.37996C47.506 9.60289 47.6987 9.64634 48.2541 9.64634C48.4449 9.64634 48.5829 9.63501 48.7113 9.62556L47.9651 10.6288L48.9777 11.3429C47.7081 11.7151 47.0356 12.9431 46.8126 13.508C46.7711 13.6251 46.7484 13.6988 46.7484 13.7744C46.7484 13.8594 46.7918 13.9444 46.9184 13.9444C47.0582 13.9444 47.164 13.8386 47.3454 13.6251C47.9651 12.877 48.4563 12.3669 50.7366 11.6527L49.1251 10.4361L50.3418 8.65637H49.2007C48.4771 8.65637 47.9972 8.64503 47.3662 8.35786C46.5122 7.963 46.0758 7.79297 45.3182 7.79297C44.3906 7.79297 43.548 8.12359 42.8546 8.76216C42.0554 9.49898 41.8079 10.4814 41.5208 11.5564C41.2978 12.3896 41.0296 13.3059 40.4344 14.1485C39.9338 14.8626 39.5729 15.214 38.4299 16.5573Z" fill="#6C768A"/>
<path d="M29.1962 12.5586C26.5834 12.5586 25.4743 13.8169 25.4743 14.6595C24.696 14.9807 24.1953 15.8441 24.1953 16.6432C24.1953 18.2321 25.3572 19.3638 26.8932 19.3638C27.4052 19.3638 27.9285 19.1598 28.2913 18.8839C28.5576 18.9784 28.8977 19.0313 29.2491 19.0313C29.9859 19.0313 30.8059 18.7743 31.384 17.9336C31.469 17.945 31.5446 17.945 31.6296 17.945C32.5667 17.945 33.3791 17.3253 33.8041 16.5148C33.9099 16.3145 33.9534 16.152 33.9534 16.0368C33.9534 15.9197 33.9005 15.8233 33.7834 15.8233C33.6341 15.8233 33.6114 15.9631 33.345 16.2068C32.748 16.7509 31.8317 16.955 30.8928 16.955C30.4337 17.6257 29.8688 17.979 29.2189 17.979C28.739 17.979 28.3668 17.8505 27.9814 17.5954C27.6716 17.9374 27.288 18.0753 26.9159 18.0753C26.0732 18.0753 25.4762 17.4878 25.4762 16.6338C25.4762 16.0368 25.8598 15.504 26.3925 15.3C26.487 14.2439 27.6168 13.5297 29.0262 13.5297C29.2075 13.5297 29.3889 13.5392 29.5816 13.5618C29.7951 13.2218 30.3071 12.859 31.0326 12.7627C31.1818 12.7419 31.2971 12.7306 31.384 12.689C31.469 12.6456 31.5106 12.5605 31.5106 12.4661C31.5106 12.3811 31.4785 12.3055 31.3953 12.2526C31.3216 12.2091 31.1913 12.1883 31.0439 12.1581C30.3713 12.0297 29.5722 11.614 29.166 10.6014C27.5544 10.6014 26.3736 9.3091 26.3736 7.86003V7.76179C25.839 7.5483 25.4781 7.03631 25.4781 6.42985C25.4781 5.6288 26.1073 4.99023 26.9064 4.99023C27.3863 4.99023 27.8019 5.2245 28.0702 5.5759C28.2931 5.51167 28.5482 5.49089 28.7938 5.49089C29.9878 5.49089 31.2687 6.24848 31.5125 7.72022C33.0484 7.86003 33.4112 9.15985 33.5094 9.70396C33.5604 9.98168 33.6039 10.216 33.7871 10.216C33.978 10.216 34.0214 10.0025 34.0856 9.71529C34.2028 9.1693 34.4049 8.73287 34.8111 8.3928C34.8111 6.99663 35.8559 5.79128 37.339 5.79128C37.5619 5.30007 38.0531 4.96 38.6388 4.96C39.4398 4.96 40.0784 5.57779 40.0784 6.39962C40.0784 6.8795 39.8555 7.29514 39.5022 7.55019C39.5778 7.82791 39.6288 8.07352 39.6288 8.30779C39.6288 9.20519 39.096 9.83243 38.1155 10.1631C37.987 10.7091 37.7527 11.1984 37.3692 11.5611C36.7287 12.1808 36.0788 12.1808 36.0788 12.4358C36.0788 12.5738 36.1733 12.6607 36.4416 12.6607C37.6261 12.6607 38.788 11.9975 38.926 10.8999C40.0576 10.5163 40.7397 9.37334 40.7397 8.46838C40.7397 8.23411 40.7189 8.03195 40.6225 7.83925C40.9324 7.54263 41.2951 7.03064 41.2951 6.27304C41.2951 5.6118 41.006 4.94111 40.4959 4.44801C40.0406 4.00781 39.4115 3.71875 38.6766 3.71875C37.611 3.71875 36.9177 4.29498 36.5209 4.85987C35.359 4.85987 33.857 6.15024 33.857 7.99606H33.6965C33.5907 7.3556 32.9275 6.93051 32.3759 6.8965C31.9262 5.55323 30.9136 4.40267 29.2491 4.40267C29.0583 4.40267 28.824 4.414 28.62 4.44423C28.1288 3.99647 27.5866 3.71875 26.829 3.71875C25.378 3.71875 24.1953 4.88065 24.1953 6.35239C24.1953 7.27058 24.611 7.89782 25.4007 8.45515L25.3893 8.62707C25.3893 9.79842 26.6684 11.6329 28.5671 11.6329C28.5671 11.9314 28.9393 12.3376 29.3568 12.4113V12.5605H29.1962V12.5586Z" fill="#6C768A"/>
<path d="M57.8825 59.1837L55.4624 58.564C54.4592 58.309 53.9906 58.1257 53.9906 57.5098C53.9906 56.9109 54.5253 56.4311 55.7609 56.4311C56.4864 56.4311 57.1476 56.5916 57.5746 57.0394C57.926 57.4116 57.8618 57.6043 58.1395 57.7535C58.3114 57.8386 58.5022 57.8386 58.8007 57.8386H60.0061C60.1988 57.8386 60.3367 57.8064 60.4425 57.6893C60.5294 57.593 60.5804 57.4437 60.5804 57.1981C60.5804 56.6427 60.2196 55.9285 59.5791 55.3844C58.7252 54.6495 57.3819 54.1602 55.7609 54.1602C52.8401 54.1602 50.9206 55.5469 50.9206 57.763C50.9206 58.5527 51.2077 59.1913 51.6763 59.6919C52.2204 60.2795 52.9988 60.6857 54.1286 60.9729L56.5714 61.5888C57.2421 61.7607 57.841 61.9647 57.841 62.5485C57.841 63.4554 56.8812 63.7633 55.8553 63.7633C55.3547 63.7633 54.8333 63.6689 54.4063 63.4554C54.1078 63.3061 53.8527 63.0945 53.6695 62.8055C53.5108 62.5598 53.456 62.3785 53.2123 62.2406C53.063 62.1537 52.8816 62.1442 52.636 62.1442H51.3135C51.0264 62.1442 50.8885 62.2292 50.7921 62.3464C50.6958 62.4635 50.6636 62.6335 50.6636 62.8055C50.6636 63.2305 50.8129 63.7633 51.1643 64.2451C51.9748 65.3314 53.6695 66.208 55.8346 66.208C57.9676 66.208 60.9205 65.322 60.9205 62.4635C60.9205 61.7267 60.707 61.0976 60.314 60.5856C59.8115 59.9413 59.0973 59.4955 57.8825 59.1837Z" fill="#6C768A"/>
<path d="M33.5252 12.7085C34.0901 13.5303 35.0385 15.1192 35.9359 17.2314C36.0946 16.9631 36.5745 16.3151 36.7672 16.111C35.9454 14.4466 34.6021 12.8577 34.0145 12.2305L33.5252 12.7085Z" fill="#6C768A"/>
<path d="M59.8761 24.875C59.2376 25.1527 57.7658 25.6836 56.3054 25.6836C55.578 25.6836 54.9716 25.6213 54.299 25.5344C53.4677 25.4286 52.678 25.3322 52.0073 25.3322C50.887 25.3322 49.5003 25.4399 48.157 26.3883L48.7445 27.1572C49.6608 26.7208 51.1439 26.5073 51.8788 26.5073C52.5514 26.5073 53.2429 26.581 53.8834 26.666C54.6088 26.7624 55.4515 26.8682 56.3356 26.8682C58.342 26.8682 60.305 25.8026 60.6129 25.6099C60.3673 25.3964 60.0575 25.0979 59.8761 24.875Z" fill="#6C768A"/>
<path d="M46.8647 26.3401L46.2469 25.5391C43.8569 26.4572 41.2025 27.9384 41.2025 29.4536C41.2025 30.317 41.843 30.9991 43.2807 30.9991C45.3929 30.9991 47.643 29.9335 49.4473 28.9416L49.1904 28.5902C49.0411 28.3749 48.9126 28.3125 48.7105 28.3125C48.582 28.3125 48.4422 28.3635 48.327 28.4183C46.7815 29.1759 45.1057 29.9335 43.549 29.9335C42.6516 29.9335 42.4287 29.6577 42.4287 29.2704C42.4287 28.184 45.3929 26.9239 46.8647 26.3401Z" fill="#6C768A"/>
<path d="M67.3928 54.5653H65.4639V51.089C65.4639 50.8113 65.3769 50.6092 65.2504 50.4486C65.0898 50.2578 64.865 50.1406 64.5362 50.1406H63.3309C63.0021 50.1406 62.7773 50.2578 62.6167 50.4486C62.4901 50.6092 62.4032 50.8113 62.4032 51.089V54.5653H61.8062C61.5833 54.5653 61.4114 54.6295 61.2829 54.7353C61.1431 54.8638 61.0807 55.0338 61.0807 55.2889V56.0238C61.0807 56.2808 61.1431 56.4527 61.2829 56.5774C61.4114 56.6851 61.5814 56.7493 61.8062 56.7493H62.4032V62.0695C62.4032 63.4335 62.7773 64.2875 63.4707 64.9695C64.1092 65.5986 64.9424 65.9935 66.3915 65.9935H67.2983C67.5213 65.9935 67.6913 65.9293 67.8198 65.8216C67.9596 65.695 68.0427 65.525 68.0427 65.268V64.3404C68.0427 64.0853 67.9577 63.9134 67.8198 63.7868C67.6913 63.6791 67.5213 63.6149 67.2983 63.6149H67.1699C66.5936 63.6149 66.1988 63.4657 65.9305 63.2087C65.6112 62.9102 65.4506 62.453 65.4506 61.8541V56.7474H67.3928C67.6157 56.7474 67.7877 56.6832 67.9142 56.5755C68.054 56.4489 68.1164 56.277 68.1164 56.0219V55.287C68.1164 55.0301 68.0522 54.86 67.9142 54.7334C67.7895 54.6295 67.6176 54.5653 67.3928 54.5653Z" fill="#6C768A"/>
<path d="M83.6051 52.5282C83.828 52.5282 83.9981 52.4639 84.1266 52.3563C84.2664 52.2297 84.3287 52.0577 84.3287 51.8027V50.8108C84.3287 50.4254 84.255 50.2327 84.1266 50.0948C84.0113 49.9682 83.8167 49.8945 83.6051 49.8945C83.4332 49.8945 83.2632 49.9153 82.976 49.9455L74.4648 50.7882C74.2211 50.8108 74.1021 50.8845 74.0171 50.9809C73.9188 51.0886 73.8792 51.2246 73.8792 51.4173V51.9727C73.8792 52.1862 73.9207 52.2807 73.9963 52.3676C74.0907 52.4734 74.2306 52.5263 74.4214 52.5263H83.6051V52.5282Z" fill="#6C768A"/>
<path d="M35.277 42.2564C34.5629 42.6739 33.6768 42.8667 32.8984 42.8667C32.5678 42.8667 32.4185 42.9309 32.3014 43.048C32.1729 43.1746 32.1087 43.3673 32.1087 43.6337V44.0059H32.3751C33.8034 44.0059 35.1259 43.7829 36.5768 42.6418L41.3 38.9502C41.9726 39.7191 43.6673 40.7847 45.6718 40.7847C46.8035 40.7847 47.527 40.5088 48.5718 40.2425C49.3823 40.0403 50.172 39.857 51.8988 39.857H56.8997C59.4597 39.857 60.6971 39.3243 62.0612 38.5572C65.0274 36.8928 67.5533 34.0778 68.9835 30.8471C68.6094 30.611 68.258 30.3975 67.9595 30.1953C66.3593 33.5658 63.9278 36.0199 61.4321 37.4369C60.2494 38.1095 59.182 38.5459 56.8789 38.5459H51.8988C50.1191 38.5459 48.9988 38.7802 48.1259 39.0031C47.187 39.2487 46.5881 39.4943 45.6416 39.4943C44.234 39.4943 42.9304 38.8009 42.3013 38.1397L43.4764 37.2121L42.8908 36.4337C42.5488 36.6793 38.3792 39.7607 37.5045 40.4541L37.4535 40.4219C37.4742 40.2084 37.4742 40.0176 37.4742 39.8268C37.4742 37.4803 36.386 36.9154 34.7329 36.2542L33.6126 36.9173C35.8835 37.673 36.4484 38.2814 36.4484 39.978C36.4484 41.3193 35.9704 41.8521 35.277 42.2564Z" fill="#6C768A"/>
<path d="M24.6223 40.6257C25.4214 40.6257 25.5159 40.1459 25.5159 39.6868C25.5159 39.3788 25.5065 39.0255 25.5065 38.642C25.5159 37.7578 25.5499 36.9681 26.9782 36.3276C27.5544 36.0726 30.3789 34.9201 32.4817 34.0246C33.1013 33.7582 33.6757 33.5353 34.3161 33.5353C35.0303 33.5353 35.8521 33.8432 36.8742 34.4535C37.7395 34.9655 38.6463 35.6588 39.3605 36.458L40.2654 35.7646C39.4871 34.8483 38.4102 34.0265 37.3333 33.3879C36.2564 32.7494 35.2967 32.3734 34.4862 32.3734C34.1348 32.3734 33.8438 32.4376 33.6001 32.5019C33.311 32.5774 33.0447 32.6625 32.7027 32.6625C32.3097 32.6625 31.9772 32.568 31.4973 32.0125C31.3179 31.8104 30.1635 30.4992 29.9198 30.1157C29.8008 29.9343 29.5892 29.5697 29.5892 29.1446C29.5892 28.9633 29.6213 28.7498 29.7271 28.559C30.719 29.3279 31.947 29.7964 33.4395 29.9778L33.2355 28.9652C31.093 28.4003 28.8089 26.5129 28.8089 25.2962C28.8089 25.0392 28.8731 24.8598 28.9676 24.6331C29.7989 25.402 31.7524 26.203 32.8066 26.203C33.3828 26.203 33.8533 26.0103 34.2991 25.829C34.7261 25.6589 35.1531 25.4908 35.7274 25.4908C37.0934 25.4908 38.7767 26.1501 40.2598 26.7793C40.3467 26.8114 40.4412 26.8341 40.5356 26.8341C40.7718 26.8341 40.9531 26.7264 41.0703 26.5015L41.263 26.1501C39.6325 25.2017 37.0291 24.1872 35.6726 24.1872C35.0548 24.1872 34.6071 24.3478 34.1801 24.5178C33.7002 24.7086 33.2846 24.9108 32.8463 24.9108C31.7694 24.9108 29.0073 23.8452 29.0073 22.8099C29.0073 21.5932 33.3998 21.1247 33.8816 21.1247L34.318 20.1328C31.1308 20.1328 27.3334 21.2513 27.3334 22.7343C27.3334 23.1613 27.579 23.3729 27.579 23.7678C27.579 24.3024 27.3334 24.6652 27.3334 25.2603C27.3334 25.6551 27.5695 26.1558 27.8454 26.5941C28.1439 27.0532 28.4972 27.3517 28.4972 27.7371C28.4972 28.0243 28.3045 28.3644 28.3045 29.0369C28.3045 30.4766 29.1263 31.3513 30.7246 33.0668L31.0439 33.4087C29.7214 33.9207 27.2578 34.9863 26.6816 35.2319C24.696 36.0613 24.1953 37.0758 24.1953 38.676C24.1953 39.2938 24.1953 39.9966 24.2369 40.6257H24.6223Z" fill="#6C768A"/>
<path d="M38.059 7.40832C38.059 7.3233 37.9834 7.23828 37.8795 7.23828C37.7812 7.23828 37.7302 7.30252 37.6339 7.37809C37.2277 7.72949 36.8649 8.0809 36.4833 8.51921C35.9392 9.12755 35.482 9.93616 35.1079 10.8222L35.6822 11.1736C36.0771 10.5861 37.3467 8.58155 37.9966 7.5689C38.0363 7.50656 38.059 7.45177 38.059 7.40832Z" fill="#6C768A"/>
<path d="M60.2709 52.3591C60.4088 52.2325 60.4731 52.0606 60.4731 51.8056V50.8647C60.4731 50.6096 60.4088 50.4377 60.2709 50.3111C60.1425 50.2035 59.9724 50.1411 59.7495 50.1411H35.4346C35.0284 50.1411 34.7733 50.279 34.592 50.4925C34.4427 50.6758 34.3577 50.876 34.3577 51.2274V60.9118H34.3029C34.3029 60.9118 29.0035 51.4636 28.7466 51.0272C28.5652 50.7154 28.363 50.5038 28.0967 50.3433C27.8303 50.194 27.5525 50.0977 27.0198 50.0977H25.2722C24.866 50.0977 24.611 50.2356 24.4296 50.4491C24.2803 50.6304 24.1953 50.8345 24.1953 51.1859V64.9095C24.1953 65.2609 24.2803 65.465 24.4296 65.6464C24.611 65.8598 24.866 65.9978 25.2722 65.9978H26.2641C26.6703 65.9978 26.9253 65.8598 27.1067 65.6464C27.2559 65.465 27.3409 65.2609 27.3409 64.9095V54.9946H27.3957C27.3957 54.9946 32.8992 64.7414 33.1221 65.1041C33.432 65.6142 33.9534 65.9996 34.7015 65.9996H36.3981C36.8024 65.9996 37.0575 65.8617 37.2388 65.6482C37.39 65.4669 37.4731 65.2628 37.4731 64.9114V52.531H59.7514C59.9724 52.5291 60.1425 52.4649 60.2709 52.3591Z" fill="#6C768A"/>
<path d="M44.3168 54.1602C40.6157 54.1602 38.5356 57.0507 38.5356 60.1C38.5356 63.3533 40.7649 66.2118 44.3356 66.2118C46.1172 66.2118 47.8648 65.5392 48.868 64.3565C49.3063 63.8427 49.6596 63.1285 49.6596 62.6921C49.6596 62.5429 49.6275 62.4144 49.5425 62.3199C49.4575 62.2122 49.329 62.148 49.1061 62.148H47.3887C47.0486 62.148 46.8125 62.2746 46.6424 62.5334C46.1418 63.2683 45.4144 63.6537 44.3489 63.6537C42.7505 63.6537 41.7152 62.4371 41.6415 61.1032H49.0645C49.3951 61.1032 49.6294 61.0295 49.7881 60.869C49.9713 60.6989 50.0564 60.4533 50.0564 59.9961C50.0564 58.5981 49.6199 57.1471 48.7017 56.04C47.7628 54.9178 46.3307 54.1602 44.3168 54.1602ZM41.6604 58.8304C41.8002 57.5193 42.8016 56.5387 44.3262 56.5387C45.8206 56.5387 46.854 57.5193 46.992 58.8304H41.6604Z" fill="#6C768A"/>
<path d="M28.0019 16.0381C28.0019 16.1137 28.0548 16.2081 28.1719 16.2081C28.2456 16.2081 28.3098 16.1779 28.4496 16.1231L32.351 14.8006L32.1602 14.1602C30.5713 14.4265 29.4188 14.8327 28.1077 15.8548C28.0321 15.921 28.0019 15.9644 28.0019 16.0381Z" fill="#6C768A"/>
<path d="M30.3701 8.42474C29.7731 7.96565 29.1024 7.59346 28.3127 7.2704L28.1748 7.23828C28.0577 7.23828 28.0048 7.3233 28.0048 7.39887C28.0048 7.4631 28.0255 7.516 28.1219 7.60102C29.0495 8.38885 30.8424 9.8946 31.396 10.3518L31.8419 9.83981C31.362 9.2768 30.8689 8.80826 30.3701 8.42474Z" fill="#6C768A"/>
</g>
<defs>
<clipPath id="clip0_11077_12292">
<rect width="61" height="64.562" fill="white" transform="translate(24 3.71875)"/>
</clipPath>
</defs>
</svg>
