<svg width="155" height="72" viewBox="0 0 155 72" fill="none" xmlns="http://www.w3.org/2000/svg">
<g clip-path="url(#clip0_11077_12395)">
<mask id="mask0_11077_12395" style="mask-type:luminance" maskUnits="userSpaceOnUse" x="11" y="-31" width="133" height="134">
<path d="M143.744 -30.0391H11.4515V102.254H143.744V-30.0391Z" fill="white"/>
</mask>
<g mask="url(#mask0_11077_12395)">
<path d="M71.1119 50.7972C71.1119 51.3245 71.0232 51.7819 70.8505 52.1786C70.6778 52.5706 70.4118 52.874 70.0525 53.0934C69.6931 53.3127 69.2404 53.4201 68.6897 53.4201C68.139 53.4201 67.6816 53.3127 67.3269 53.0934C66.9675 52.874 66.7015 52.5706 66.5288 52.1739C66.3561 51.7772 66.2675 51.3199 66.2675 50.7925C66.2675 50.2651 66.3515 49.8077 66.5288 49.4157C66.7015 49.0283 66.9675 48.725 67.3269 48.5056C67.6862 48.2909 68.1436 48.1836 68.699 48.1836C69.2544 48.1836 69.7024 48.2909 70.0618 48.5056C70.4165 48.7203 70.6825 49.0237 70.8552 49.4157C71.0279 49.8077 71.1165 50.2698 71.1165 50.7972M67.4016 50.7972C67.4016 51.3292 67.5042 51.7492 67.7096 52.0526C67.9149 52.3606 68.2416 52.5146 68.6943 52.5146C69.147 52.5146 69.4831 52.3606 69.6838 52.0526C69.8844 51.7446 69.9825 51.3245 69.9825 50.7972C69.9825 50.2698 69.8844 49.8451 69.6838 49.5417C69.4831 49.2337 69.1564 49.0797 68.699 49.0797C68.2416 49.0797 67.9149 49.2337 67.7096 49.5417C67.5042 49.8497 67.4016 50.2698 67.4016 50.7972Z" fill="#6C768A"/>
<path d="M73.842 53.3496H72.7639V49.1586H71.3824V48.2578H75.2234V49.1586H73.842V53.3496Z" fill="#6C768A"/>
<path d="M80.166 53.3488H79.0879V50.4039C79.0879 50.2872 79.0879 50.1239 79.0926 49.9232C79.0926 49.7225 79.1066 49.5452 79.1159 49.3912C79.0926 49.4192 79.0413 49.4705 78.9619 49.5452C78.8826 49.6198 78.8126 49.6852 78.7426 49.7412L78.1592 50.2126L77.6365 49.5638L79.2746 48.2617H80.1567V53.3488H80.166Z" fill="#6C768A"/>
<path d="M85.1181 50.4301C85.1181 50.7194 85.0947 51.0088 85.0527 51.2982C85.0107 51.5875 84.936 51.8582 84.8287 52.1102C84.7214 52.3623 84.572 52.5909 84.3807 52.787C84.1893 52.983 83.942 53.137 83.6479 53.249C83.3492 53.361 82.9899 53.417 82.5698 53.417C82.4718 53.417 82.3552 53.417 82.2198 53.4077C82.0845 53.403 81.9725 53.389 81.8838 53.3703V52.5069C81.9771 52.5256 82.0798 52.5443 82.1825 52.5583C82.2851 52.5723 82.3925 52.5769 82.4952 52.5769C82.9199 52.5769 83.2466 52.5116 83.4753 52.3762C83.7039 52.2456 83.8673 52.0589 83.9653 51.8162C84.0586 51.5782 84.1146 51.2982 84.1286 50.9855H84.0866C83.9886 51.1535 83.8533 51.2935 83.6899 51.4055C83.5266 51.5175 83.2839 51.5782 82.9572 51.5782C82.5232 51.5782 82.1778 51.4382 81.9164 51.1581C81.6551 50.8781 81.5244 50.4814 81.5244 49.968C81.5244 49.4173 81.6784 48.9833 81.9911 48.6706C82.3038 48.3579 82.7239 48.1992 83.2559 48.1992C83.6013 48.1992 83.9186 48.2786 84.1986 48.4372C84.4787 48.5959 84.7027 48.8386 84.866 49.17C85.0341 49.5013 85.1181 49.9214 85.1181 50.4301ZM83.2792 49.0626C83.0692 49.0626 82.8965 49.1326 82.7659 49.282C82.6352 49.4267 82.5652 49.6507 82.5652 49.954C82.5652 50.2014 82.6212 50.3974 82.7379 50.5374C82.8499 50.6821 83.0272 50.7521 83.2559 50.7521C83.4146 50.7521 83.5499 50.7148 83.6713 50.6448C83.7879 50.5748 83.8813 50.4861 83.9513 50.3787C84.0166 50.2714 84.0493 50.1594 84.0493 50.0474C84.0493 49.8887 84.0213 49.7347 83.9653 49.5853C83.9093 49.4313 83.8206 49.31 83.7086 49.212C83.5966 49.114 83.4519 49.0673 83.2792 49.0673" fill="#6C768A"/>
<path d="M87.5119 50.0974C87.8199 50.0974 88.0952 50.1581 88.3379 50.2748C88.5806 50.3914 88.772 50.5688 88.912 50.7928C89.052 51.0215 89.122 51.3015 89.122 51.6422C89.122 52.1929 88.9493 52.627 88.6086 52.9443C88.2679 53.2617 87.7592 53.4157 87.0918 53.4157C86.8258 53.4157 86.5738 53.3924 86.3404 53.3457C86.1071 53.299 85.897 53.229 85.7244 53.1403V52.2116C85.9017 52.3003 86.1117 52.3796 86.3591 52.4449C86.6064 52.5103 86.8398 52.5429 87.0591 52.5429C87.3765 52.5429 87.6192 52.4776 87.7919 52.3469C87.9599 52.2163 88.0439 52.0109 88.0439 51.7355C88.0439 51.2222 87.7032 50.9655 87.0265 50.9655C86.8911 50.9655 86.7558 50.9795 86.6111 51.0028C86.4711 51.0308 86.3498 51.0542 86.2564 51.0775L85.827 50.8488L86.0184 48.2539H88.7766V49.1687H86.9611L86.8678 50.1674C86.9471 50.1534 87.0358 50.1394 87.1292 50.1207C87.2225 50.1021 87.3532 50.0974 87.5165 50.0974" fill="#6C768A"/>
<path d="M93.2697 50.4301C93.2697 50.7194 93.2463 51.0088 93.2043 51.2982C93.1623 51.5875 93.0877 51.8582 92.9803 52.1102C92.873 52.3623 92.7236 52.5909 92.5323 52.787C92.3409 52.983 92.0936 53.137 91.7995 53.249C91.5009 53.361 91.1415 53.417 90.7215 53.417C90.6234 53.417 90.5068 53.417 90.3714 53.4077C90.2361 53.403 90.1241 53.389 90.0354 53.3703V52.5069C90.1287 52.5256 90.2314 52.5443 90.3341 52.5583C90.4368 52.5723 90.5441 52.5769 90.6468 52.5769C91.0715 52.5769 91.3982 52.5116 91.6269 52.3762C91.8555 52.2456 92.0189 52.0589 92.1169 51.8162C92.2102 51.5782 92.2663 51.2982 92.2803 50.9855H92.2383C92.1402 51.1535 92.0049 51.2935 91.8415 51.4055C91.6782 51.5175 91.4355 51.5782 91.1088 51.5782C90.6748 51.5782 90.3294 51.4382 90.0681 51.1581C89.8067 50.8781 89.676 50.4814 89.676 49.968C89.676 49.4173 89.83 48.9833 90.1427 48.6706C90.4554 48.3579 90.8755 48.1992 91.4075 48.1992C91.7529 48.1992 92.0702 48.2786 92.3503 48.4372C92.6303 48.5959 92.8543 48.8386 93.0177 49.17C93.1857 49.5013 93.2697 49.9214 93.2697 50.4301ZM91.4308 49.0626C91.2208 49.0626 91.0481 49.1326 90.9175 49.282C90.7868 49.4267 90.7168 49.6507 90.7168 49.954C90.7168 50.2014 90.7728 50.3974 90.8895 50.5374C91.0015 50.6821 91.1788 50.7521 91.4075 50.7521C91.5662 50.7521 91.7015 50.7148 91.8229 50.6448C91.9396 50.5748 92.0329 50.4861 92.1029 50.3787C92.1682 50.2714 92.2009 50.1594 92.2009 50.0474C92.2009 49.8887 92.1729 49.7347 92.1169 49.5853C92.0609 49.4313 91.9722 49.31 91.8602 49.212C91.7482 49.114 91.6035 49.0673 91.4308 49.0673" fill="#6C768A"/>
<path d="M28.8745 60.6433C28.8745 61.1287 28.7999 61.5534 28.6458 61.9128C28.4918 62.2722 28.2631 62.5568 27.9505 62.7575C27.6378 62.9582 27.2457 63.0609 26.779 63.0609C26.3123 63.0609 25.9063 62.9582 25.5982 62.7575C25.2902 62.5568 25.0615 62.2722 24.9075 61.9081C24.7535 61.5441 24.6788 61.1194 24.6788 60.634C24.6788 60.1486 24.7535 59.7333 24.9075 59.3692C25.0615 59.0099 25.2902 58.7252 25.5982 58.5292C25.9063 58.3285 26.303 58.2305 26.779 58.2305C27.2551 58.2305 27.6378 58.3285 27.9505 58.5292C28.2585 58.7298 28.4918 59.0099 28.6412 59.3692C28.7905 59.7286 28.8699 60.1533 28.8699 60.6387M25.5236 60.6433C25.5236 61.1754 25.6262 61.5908 25.8269 61.8895C26.0276 62.1928 26.345 62.3422 26.779 62.3422C27.2131 62.3422 27.5444 62.1928 27.7404 61.8895C27.9365 61.5861 28.0345 61.1707 28.0345 60.6433C28.0345 60.116 27.9365 59.6959 27.7404 59.3972C27.5444 59.0939 27.2271 58.9445 26.7837 58.9445C26.3403 58.9445 26.0276 59.0939 25.8269 59.3972C25.6262 59.7006 25.5236 60.116 25.5236 60.6433Z" fill="#6C768A"/>
<path d="M29.8214 62.9951V58.3047H32.5657V59.0141H30.6195V60.1762H31.1002C31.5296 60.1762 31.8749 60.2369 32.1316 60.3582C32.393 60.4795 32.5797 60.6429 32.6963 60.8529C32.813 61.0583 32.869 61.2963 32.869 61.567C32.869 62.0197 32.7337 62.3744 32.4583 62.6217C32.183 62.8691 31.7349 62.9951 31.1189 62.9951H29.8214ZM30.6195 62.2997H31.0769C31.4035 62.2997 31.6509 62.2437 31.8143 62.127C31.9776 62.0103 32.0616 61.8237 32.0616 61.567C32.0616 61.2963 31.9729 61.1143 31.7909 61.0163C31.6136 60.9229 31.3475 60.8763 30.9928 60.8763H30.6195V62.2997Z" fill="#6C768A"/>
<path d="M36.2815 62.9951H33.7473V58.3047H36.2815V59.0094H34.5454V60.2042H36.1695V60.9089H34.5454V62.2857H36.2815V62.9951Z" fill="#6C768A"/>
<path d="M40.529 58.3054V62.2771H41.1171V64.3073H40.3424V62.9912H37.4534V64.3073H36.6787V62.2771H37.0241C37.2854 61.7684 37.5188 61.1804 37.7195 60.5083C37.9202 59.8409 38.0602 59.1035 38.1395 58.3008H40.529V58.3054ZM39.7403 59.0242H38.7929C38.7696 59.2622 38.7276 59.5189 38.6716 59.7989C38.6155 60.0789 38.5455 60.3636 38.4615 60.6577C38.3775 60.947 38.2889 61.2317 38.1862 61.5117C38.0882 61.7918 37.9808 62.0484 37.8688 62.2818H39.7403V59.0242Z" fill="#6C768A"/>
<path d="M41.8208 58.3047H42.5442V60.6896C42.5442 60.8342 42.5442 60.9976 42.5396 61.1796C42.5396 61.3616 42.5302 61.5296 42.5256 61.679C42.5209 61.8283 42.5116 61.931 42.5022 61.9823H42.5256L44.7331 58.3047H45.6665V62.9951H44.9431V60.6289C44.9431 60.4702 44.9431 60.2975 44.9571 60.1062C44.9711 59.9148 44.9758 59.7422 44.9804 59.5928C44.9898 59.4388 44.9944 59.3361 44.9991 59.2848H44.9758L42.7589 62.9951H41.8162V58.3047H41.8208Z" fill="#6C768A"/>
<path d="M50.3852 62.9951H49.5825V60.9136H47.627V62.9951H46.8242V58.3047H47.627V60.1995H49.5825V58.3047H50.3852V62.9951Z" fill="#6C768A"/>
<path d="M54.0771 62.9951H51.5428V58.3047H54.0771V59.0094H52.3409V60.2042H53.9651V60.9089H52.3409V62.2857H54.0771V62.9951Z" fill="#6C768A"/>
<path d="M58.5804 62.9951H57.7823V60.9136H55.8221V62.9951H55.024V58.3047H55.8221V60.1995H57.7823V58.3047H58.5804V62.9951Z" fill="#6C768A"/>
<path d="M62.4903 62.9942L62.0842 61.7528H60.4041L60.0027 62.9942H59.1533L60.7868 58.2852H61.6969L63.3304 62.9942H62.4809H62.4903ZM61.8836 61.0294L61.4962 59.8206C61.4775 59.7646 61.4542 59.6806 61.4215 59.5733C61.3888 59.4659 61.3562 59.3539 61.3282 59.2466C61.3002 59.1346 61.2722 59.0412 61.2535 58.9666C61.2348 59.0599 61.2068 59.1626 61.1742 59.2746C61.1415 59.3913 61.1135 59.4939 61.0855 59.5966C61.0575 59.6993 61.0388 59.774 61.0202 59.8206L60.6281 61.0294H61.8836Z" fill="#6C768A"/>
<path d="M67.4657 62.9951L66.243 59.1541H66.2196C66.229 59.2428 66.2336 59.3641 66.243 59.5228C66.2476 59.6815 66.257 59.8542 66.2616 60.0408C66.2663 60.2275 66.271 60.4002 66.271 60.5636V62.9951H65.5522V58.3047H66.663L67.8344 61.987H67.8578L69.0806 58.3047H70.1913V62.9951H69.4306V60.5262C69.4306 60.3769 69.4306 60.2135 69.4399 60.0362C69.4446 59.8588 69.4539 59.6908 69.4586 59.5321C69.4633 59.3735 69.4679 59.2474 69.4726 59.1634H69.4493L68.1751 62.9998H67.4657V62.9951Z" fill="#6C768A"/>
<path d="M74.747 62.9951H73.949V59.0141H72.7402C72.7168 59.2334 72.6888 59.4668 72.6608 59.7141C72.6328 59.9615 72.6002 60.2089 72.5675 60.4562C72.5348 60.7036 72.5022 60.9369 72.4695 61.1609C72.4368 61.3803 72.4042 61.5763 72.3715 61.7397C72.3155 62.0243 72.2501 62.2624 72.1615 62.4584C72.0775 62.6544 71.9608 62.8037 71.8161 62.9064C71.6714 63.0091 71.4801 63.0604 71.2421 63.0604C71.0787 63.0604 70.934 63.0371 70.8033 62.9904V62.295C70.8593 62.3184 70.9107 62.3324 70.9667 62.3464C71.018 62.3604 71.0787 62.365 71.1394 62.365C71.2841 62.365 71.3914 62.281 71.4614 62.113C71.5314 61.945 71.5921 61.7023 71.6528 61.3756C71.6808 61.2263 71.7181 60.9976 71.7648 60.6942C71.8114 60.3862 71.8628 60.0268 71.9188 59.6161C71.9748 59.2054 72.0308 58.7667 72.0821 58.3047H74.7517V62.9951H74.747Z" fill="#6C768A"/>
<path d="M78.4439 62.9951H75.9097V58.3047H78.4439V59.0094H76.7077V60.2042H78.3319V60.9089H76.7077V62.2857H78.4439V62.9951Z" fill="#6C768A"/>
<path d="M82.7039 62.9951H81.9058V61.1423C81.6538 61.2356 81.4158 61.3056 81.2011 61.357C80.9864 61.4083 80.7624 61.4316 80.529 61.4316C80.109 61.4316 79.7823 61.3243 79.5536 61.1143C79.3249 60.9043 79.2083 60.6056 79.2083 60.2135V58.3047H80.0063V60.0128C80.0063 60.2509 80.0623 60.4282 80.1697 60.5449C80.2817 60.6616 80.4637 60.7222 80.7157 60.7222C80.9211 60.7222 81.1124 60.7036 81.2944 60.6616C81.4765 60.6196 81.6818 60.5589 81.9105 60.4749V58.3094H82.7086V62.9998L82.7039 62.9951Z" fill="#6C768A"/>
<path d="M87.4229 62.9951H86.6248V60.9136H84.6646V62.9951H83.8666V58.3047H84.6646V60.1995H86.6248V58.3047H87.4229V62.9951Z" fill="#6C768A"/>
<path d="M91.3344 62.9942L90.9284 61.7528H89.2482L88.8468 62.9942H87.9974L89.6309 58.2852H90.541L92.1745 62.9942H91.3251H91.3344ZM90.723 61.0294L90.3356 59.8206C90.317 59.7646 90.2936 59.6806 90.261 59.5733C90.2283 59.4659 90.1956 59.3539 90.1676 59.2466C90.1396 59.1392 90.1116 59.0412 90.093 58.9666C90.0743 59.0599 90.0463 59.1626 90.0136 59.2746C89.9809 59.3913 89.9529 59.4939 89.9249 59.5966C89.8969 59.6993 89.8783 59.774 89.8596 59.8206L89.4676 61.0294H90.723Z" fill="#6C768A"/>
<path d="M97.8758 62.9951H96.9517L95.1876 60.6196V62.9951H94.3895V58.3047H95.1876V60.5776L96.9237 58.3047H97.7918L96.051 60.5729L97.8758 62.9951Z" fill="#6C768A"/>
<path d="M102.315 60.6433C102.315 61.1287 102.24 61.5534 102.086 61.9128C101.932 62.2722 101.703 62.5568 101.391 62.7575C101.078 62.9582 100.686 63.0609 100.219 63.0609C99.7524 63.0609 99.3463 62.9582 99.0383 62.7575C98.7303 62.5568 98.5016 62.2722 98.3476 61.9081C98.1982 61.5441 98.1189 61.1194 98.1189 60.634C98.1189 60.1486 98.1936 59.7333 98.3476 59.3692C98.5016 59.0099 98.7303 58.7252 99.0383 58.5292C99.3463 58.3285 99.743 58.2305 100.219 58.2305C100.695 58.2305 101.078 58.3285 101.391 58.5292C101.699 58.7298 101.932 59.0099 102.081 59.3692C102.231 59.7286 102.31 60.1533 102.31 60.6387M98.9636 60.6433C98.9636 61.1754 99.0663 61.5908 99.267 61.8895C99.4677 62.1928 99.785 62.3422 100.219 62.3422C100.653 62.3422 100.984 62.1928 101.18 61.8895C101.377 61.5861 101.475 61.1707 101.475 60.6433C101.475 60.116 101.377 59.6959 101.18 59.3972C100.984 59.0939 100.667 58.9445 100.224 58.9445C99.7804 58.9445 99.4677 59.0939 99.267 59.3972C99.0663 59.7006 98.9636 60.116 98.9636 60.6433Z" fill="#6C768A"/>
<path d="M105.182 62.9951L103.959 59.1541H103.936C103.945 59.2428 103.95 59.3641 103.959 59.5228C103.964 59.6815 103.973 59.8542 103.978 60.0408C103.982 60.2275 103.987 60.4002 103.987 60.5636V62.9951H103.268V58.3047H104.379L105.551 61.987H105.574L106.797 58.3047H107.907V62.9951H107.147V60.5262C107.147 60.3769 107.147 60.2135 107.156 60.0362C107.161 59.8588 107.17 59.6908 107.175 59.5321C107.179 59.3735 107.184 59.2474 107.189 59.1634H107.165L105.891 62.9998H105.182V62.9951Z" fill="#6C768A"/>
<path d="M109.059 62.9951V58.3047H112.517V62.9951H111.719V59.0141H109.857V62.9951H109.059Z" fill="#6C768A"/>
<path d="M116.429 62.9942L116.022 61.7528H114.342L113.941 62.9942H113.092L114.725 58.2852H115.635L117.269 62.9942H116.419H116.429ZM115.817 61.0294L115.43 59.8206C115.411 59.7646 115.388 59.6806 115.355 59.5733C115.322 59.4659 115.29 59.3539 115.262 59.2466C115.234 59.1392 115.206 59.0412 115.187 58.9666C115.168 59.0599 115.14 59.1626 115.108 59.2746C115.075 59.3913 115.047 59.4939 115.019 59.5966C114.991 59.6993 114.972 59.774 114.954 59.8206L114.562 61.0294H115.817Z" fill="#6C768A"/>
<path d="M121.423 62.9951H120.62V60.9136H118.665V62.9951H117.862V58.3047H118.665V60.1995H120.62V58.3047H121.423V62.9951Z" fill="#6C768A"/>
<path d="M122.58 58.3047H123.303V60.6896C123.303 60.8342 123.303 60.9976 123.299 61.1796C123.299 61.3616 123.289 61.5296 123.285 61.679C123.28 61.8283 123.271 61.931 123.261 61.9823H123.285L125.492 58.3047H126.426V62.9951H125.702V60.6289C125.702 60.4702 125.702 60.2975 125.716 60.1062C125.726 59.9148 125.73 59.7422 125.74 59.5928C125.749 59.4388 125.754 59.3361 125.758 59.2848H125.735L123.518 62.9951H122.575V58.3047H122.58Z" fill="#6C768A"/>
<path d="M129.02 61.1423L127.933 62.9951H127.032L128.292 60.9416C128.157 60.8856 128.021 60.8062 127.895 60.7036C127.769 60.6009 127.667 60.4655 127.583 60.2882C127.503 60.1108 127.461 59.8962 127.461 59.6301C127.461 59.2008 127.606 58.8741 127.891 58.6454C128.18 58.4167 128.595 58.3047 129.137 58.3047H130.509V62.9951H129.711V61.1423H129.011H129.02ZM129.72 59.0047H129.17C128.885 59.0047 128.665 59.0561 128.511 59.1681C128.357 59.2754 128.278 59.4528 128.278 59.6955C128.278 59.9382 128.353 60.1155 128.502 60.2509C128.651 60.3862 128.885 60.4515 129.193 60.4515H129.716V59.0047H129.72Z" fill="#6C768A"/>
<path d="M112.643 24.7946L120.843 8.75391H109.451L101.274 26.2461L109.596 41.9835H122.127L112.643 24.7946Z" fill="#6C768A"/>
<path fill-rule="evenodd" clip-rule="evenodd" d="M42.6413 7.91016C33.0505 7.91016 25.2751 15.6855 25.2751 25.2763C25.2751 34.8672 33.0505 42.6425 42.6413 42.6425C52.2322 42.6425 60.0075 34.8672 60.0075 25.2763C60.0075 15.6855 52.2322 7.91016 42.6413 7.91016ZM42.6413 32.7997C38.4876 32.7997 35.118 29.43 35.118 25.2763C35.118 21.1226 38.4876 17.753 42.6413 17.753C46.795 17.753 50.1647 21.1226 50.1647 25.2763C50.1647 29.43 46.795 32.7997 42.6413 32.7997Z" fill="#6C768A"/>
<path d="M100.206 8.75543H85.1877L80.5019 28.3991L75.8068 8.74609H60.2841L58.3846 41.9757H68.3068L69.805 20.1291L74.9061 41.9757H75.8862V41.985H86.0931L91.1942 20.1384L92.6876 41.985H102.61L100.206 8.75543Z" fill="#6C768A"/>
</g>
</g>
<defs>
<clipPath id="clip0_11077_12395">
<rect width="106.876" height="56.4716" fill="white" transform="translate(24.0537 7.76562)"/>
</clipPath>
</defs>
</svg>
