<svg width="239" height="72" viewBox="0 0 239 72" fill="none" xmlns="http://www.w3.org/2000/svg">
<g clip-path="url(#clip0_11077_12259)">
<path d="M141.779 28.6562H129.292C129.17 29.2138 129.077 29.7765 129.042 30.3546H141.365C141.426 29.7561 141.58 29.1934 141.784 28.6562" fill="#6C768A"/>
<path d="M141.34 31.457H129.027C129.057 32.0095 129.119 32.5569 129.231 33.0889H141.642C141.478 32.5722 141.381 32.0249 141.34 31.457Z" fill="#6C768A"/>
<path d="M42.5182 44.6895C39.587 44.6895 35.3104 44.316 31.6171 42.5256C26.9108 40.239 24.5219 36.3665 24.5219 31.0055C24.5219 26.4118 26.5016 22.7184 30.241 20.3294C33.2796 18.3855 37.505 17.3164 42.1396 17.3164C46.4571 17.3164 53.9769 18.1298 57.701 23.3476V17.7666H76.7972C79.9688 17.7666 84.6955 17.7666 87.5858 20.488V17.7666H107.741C112.207 17.7666 115.655 19.0813 117.338 21.24V17.7666H128.658V44.2444H117.338V41.6713C114.478 43.9068 110.145 44.2444 106.155 44.2444H79.8665L69.968 33.773H69.216V44.2444H57.7112V38.6839C54.2736 43.6152 47.6542 44.6895 42.5284 44.6895M87.5858 38.8066V30.0182C85.8567 31.6807 83.6315 32.3764 81.6927 32.7601L87.5858 38.8066ZM103.991 38.0035C108.575 38.0035 108.575 36.2693 108.575 35.6964C108.575 34.2129 107.096 33.5223 103.93 33.5223H98.9626V38.0035H103.991ZM42.0118 24.0689C38.5639 24.0689 36.6609 26.4169 36.6609 30.6832C36.6609 33.6758 37.5971 37.2413 42.0731 37.2413C47.4853 37.2413 47.4853 32.0695 47.4853 30.3661C47.4853 26.3043 45.5414 24.0689 42.0118 24.0689ZM113.726 30.1103C115.44 30.5502 116.493 31.0669 117.332 31.6603V27.793C116.642 28.6063 115.527 29.4299 113.726 30.1103ZM72.9708 28.2329C74.2957 28.2329 77.365 28.0078 77.365 25.9309C77.365 23.9614 75.3137 23.6903 73.0935 23.6903H69.2058V28.238H72.9708V28.2329ZM103.168 27.8492C105.285 27.8492 107.25 27.5935 107.25 25.7365C107.25 24.3349 105.971 23.6852 103.229 23.6852H98.9575V27.8492H103.168Z" fill="#6C768A"/>
<path d="M118.054 18.4892V33.1963C116.668 31.9021 115.374 30.9659 110.662 30.2344C117.742 28.7458 117.742 25.6663 117.742 24.5153C117.742 20.74 113.501 18.4841 107.736 18.4841H88.3023V22.1622L87.7038 21.625C87.668 21.5892 87.6322 21.5483 87.5913 21.5023C87.5708 21.4767 87.5401 21.4409 87.5299 21.4306L87.4225 21.3539C84.7982 18.4841 79.9794 18.4841 76.7976 18.4841H58.4176V25.9937L57.7423 24.7659C54.5144 18.9138 46.5803 18.0391 42.14 18.0391C33.9706 18.0391 25.2435 21.446 25.2435 31.0069C25.2435 42.706 37.3263 43.9695 42.5186 43.9695C47.7108 43.9695 54.7395 42.8032 57.7423 37.2427L58.4176 35.9894V43.5245H68.4849V33.0531H70.2702L70.3776 33.1656L80.1687 43.5194H106.15C110.908 43.5194 115.583 43.0385 118.054 39.9488V43.5194H127.932V18.4892H118.054ZM42.0735 37.9639C38.1192 37.9639 35.94 35.3806 35.94 30.6846C35.94 25.9886 38.1499 23.349 42.0121 23.349C45.8743 23.349 48.207 25.9067 48.207 30.3674C48.207 35.4062 46.1455 37.9588 42.0735 37.9588M72.9712 28.9555H68.4849V22.9653H73.0939C74.5877 22.9653 78.0867 22.9653 78.0867 25.9272C78.0867 28.6537 74.5058 28.9504 72.9712 28.9504M88.3074 40.5831L80.2301 32.2857L80.9053 32.1681C83.0947 31.7946 85.8469 31.0785 87.668 28.8686L88.3074 28.0961V40.578V40.5831ZM98.2417 22.9653H103.234C104.406 22.9653 107.971 22.9653 107.971 25.7379C107.971 28.5105 104.605 28.5719 103.173 28.5719H98.2417V22.9653ZM103.992 38.7262H98.2417V32.8024H103.93C105.255 32.8024 109.296 32.8024 109.296 35.6978C109.296 37.7082 107.511 38.7262 103.992 38.7262Z" fill="#6C768A"/>
<path d="M146.096 44.4636C150.183 44.4636 153.099 44.0697 155.58 42.6016H137.461C139.993 43.7781 142.94 44.4636 146.096 44.4636Z" fill="#6C768A"/>
<path d="M146.097 17.5117C143.033 17.5117 140.158 18.1563 137.672 19.2715H154.538C152.046 18.1563 149.172 17.5117 146.097 17.5117Z" fill="#6C768A"/>
<path d="M158.303 21.5465C157.776 21.127 157.208 20.7433 156.615 20.375H135.585C134.766 20.8814 134.019 21.4595 133.329 22.0682H157.535L158.308 21.5413L158.303 21.5465Z" fill="#6C768A"/>
<path d="M155.918 23.1797H132.182C131.712 23.6964 131.292 24.2488 130.914 24.8115H153.524L155.913 23.1797H155.918Z" fill="#6C768A"/>
<path d="M142.106 34.1992H129.512C129.691 34.7824 129.931 35.34 130.207 35.8925H143.497C142.945 35.4372 142.469 34.8642 142.106 34.1992Z" fill="#6C768A"/>
<path d="M153.452 37H130.811C131.205 37.6139 131.666 38.197 132.167 38.7546H155.954L153.452 37Z" fill="#6C768A"/>
<path d="M143.856 25.9141H130.29C130.014 26.4461 129.768 26.9832 129.584 27.5459H142.301C142.716 26.886 143.253 26.3386 143.862 25.9141" fill="#6C768A"/>
<path d="M149.243 25.9141C149.668 26.2005 150.067 26.5382 150.404 26.9474L151.913 25.9141H149.243Z" fill="#6C768A"/>
<path d="M149.243 35.8927H151.877L150.404 34.8594C150.072 35.2686 149.668 35.6011 149.243 35.8927Z" fill="#6C768A"/>
<path d="M133.256 39.8594C133.921 40.4528 134.668 40.995 135.456 41.4912H157.156C157.545 41.1587 157.928 40.8006 158.307 40.3965L157.539 39.8594H133.261H133.256Z" fill="#6C768A"/>
<path d="M186.232 22.0836C185.537 21.4595 184.764 20.8866 183.936 20.375H162.906C162.077 20.8866 161.305 21.4595 160.609 22.0836H186.232Z" fill="#6C768A"/>
<path d="M188.612 24.8329C188.233 24.2498 187.798 23.6922 187.317 23.1602H159.52C159.039 23.6922 158.604 24.2498 158.226 24.8329H188.612Z" fill="#6C768A"/>
<path d="M165.013 19.26H181.823C179.342 18.1499 176.477 17.5156 173.418 17.5156C170.359 17.5156 167.494 18.1551 165.013 19.26Z" fill="#6C768A"/>
<path d="M158.132 37C158.521 37.6139 158.966 38.197 159.462 38.7495H187.373C187.869 38.1919 188.314 37.6087 188.703 37H158.132Z" fill="#6C768A"/>
<path d="M178.139 30.3456H190.477C190.442 29.7726 190.36 29.2048 190.237 28.6523H177.791C177.975 29.1792 178.083 29.7573 178.139 30.3456Z" fill="#6C768A"/>
<path d="M182.074 42.6016H164.764C167.301 43.7832 170.258 44.4636 173.419 44.4636C176.58 44.4636 179.537 43.7832 182.074 42.6016Z" fill="#6C768A"/>
<path d="M168.539 30.3456C168.596 29.7522 168.698 29.1792 168.887 28.6523H156.605C156.482 29.2048 156.4 29.7726 156.365 30.3456H168.539Z" fill="#6C768A"/>
<path d="M177.454 34.1914C177.116 34.8564 176.676 35.4345 176.165 35.8949H189.322C189.593 35.3424 189.823 34.7746 190.007 34.1914H177.454Z" fill="#6C768A"/>
<path d="M170.513 35.8949C169.997 35.4345 169.557 34.8615 169.224 34.1914H156.834C157.014 34.7746 157.244 35.3424 157.515 35.8949H170.513Z" fill="#6C768A"/>
<path d="M169.407 27.5468C169.801 26.8818 170.297 26.314 170.87 25.8945H157.601C157.324 26.4317 157.089 26.979 156.9 27.5468H169.407Z" fill="#6C768A"/>
<path d="M168.81 33.0823C168.656 32.5605 168.539 32.0234 168.508 31.4453H156.353C156.379 31.9978 156.44 32.5451 156.548 33.0823H168.815H168.81Z" fill="#6C768A"/>
<path d="M175.803 25.8984C176.376 26.3179 176.877 26.8857 177.266 27.5507H189.932C189.743 26.9829 189.508 26.4356 189.231 25.8984H175.803Z" fill="#6C768A"/>
<path d="M178.165 31.4453C178.129 32.0182 178.016 32.5605 177.863 33.0823H190.288C190.345 32.7958 190.386 32.5145 190.421 32.2229H199.619V42.2134H186.278V39.8552H160.562C161.217 40.4435 161.933 40.9908 162.711 41.4819H184.134C184.615 41.175 185.071 40.8476 185.5 40.5049V47.3085C185.5 49.2319 186.779 50.9251 188.631 51.452L200.013 54.685L211.395 51.452C213.247 50.9251 214.526 49.2319 214.526 47.3085V31.4453H178.17H178.165Z" fill="#6C768A"/>
<path d="M186.28 42.9922H199.626V53.7654L188.848 50.7064C187.338 50.2767 186.28 48.8801 186.28 47.3097V42.9922Z" fill="#6C768A"/>
<path d="M213.744 32.2227H200.398V42.2132H213.744V32.2227Z" fill="#6C768A"/>
<path d="M213.745 47.3097C213.745 48.8801 212.691 50.2767 211.182 50.7064L200.404 53.7654V42.9922H213.75V47.3097H213.745Z" fill="white"/>
<path d="M190.423 32.2239C190.085 35.1346 188.581 37.7742 186.274 39.8511V42.2093H199.62V32.2188H190.423V32.2239Z" fill="white"/>
</g>
<defs>
<clipPath id="clip0_11077_12259">
<rect width="190" height="37.3636" fill="white" transform="translate(24.5219 17.3164)"/>
</clipPath>
</defs>
</svg>
