<svg width="129" height="72" viewBox="0 0 129 72" fill="none" xmlns="http://www.w3.org/2000/svg">
<g clip-path="url(#clip0_11077_12186)">
<path d="M56.3902 31.3203H71.9617V15.7533H56.3902V31.3203Z" fill="url(#paint0_radial_11077_12186)"/>
<mask id="mask0_11077_12186" style="mask-type:luminance" maskUnits="userSpaceOnUse" x="24" y="6" width="81" height="95">
<path d="M24.0043 100.332H104.162V6.14104H24.0043V100.332Z" fill="white"/>
</mask>
<g mask="url(#mask0_11077_12186)">
<path d="M68.5889 19.0558C68.072 18.9292 67.5664 18.7265 67.0842 18.45C66.5997 18.1697 66.1755 17.8329 65.8063 17.4508C65.2939 17.5963 64.7582 17.6761 64.2013 17.6761C63.643 17.6761 63.1035 17.5963 62.5926 17.4508C62.2234 17.8329 61.7962 18.1697 61.317 18.45C60.8302 18.7265 60.3254 18.9292 59.8085 19.0558C59.6834 19.5727 59.4807 20.0775 59.205 20.5605C58.9247 21.0435 58.5856 21.473 58.2036 21.8384C58.3513 22.3508 58.4304 22.8865 58.4304 23.4448C58.4304 24.0017 58.3513 24.5412 58.2036 25.0498C58.5856 25.419 58.9247 25.8469 59.205 26.3314C59.4807 26.8106 59.6834 27.3193 59.8085 27.8361C60.3254 27.9627 60.8302 28.1617 61.317 28.4419C61.7962 28.7222 62.2234 29.0568 62.5926 29.4433C63.1035 29.2956 63.643 29.2158 64.2013 29.2158C64.7582 29.2158 65.2939 29.2956 65.8063 29.4433C66.1755 29.0568 66.5997 28.7222 67.0842 28.4419C67.5664 28.1617 68.072 27.9627 68.5889 27.8361C68.714 27.3193 68.9182 26.8106 69.1947 26.3314C69.475 25.8469 69.8118 25.419 70.1961 25.0498C70.0484 24.5412 69.9685 24.0017 69.9685 23.4448C69.9685 22.8865 70.0484 22.3508 70.1961 21.8384C69.8118 21.473 69.475 21.0435 69.1947 20.5605C68.9182 20.0775 68.714 19.5727 68.5889 19.0558ZM68.3598 7.91549C69.8171 7.49127 71.4371 7.63895 72.8551 8.45649C74.2687 9.27628 75.2098 10.6032 75.5692 12.0732C77.0415 12.4372 78.3721 13.376 79.1882 14.7918C80.0057 16.2091 80.1556 17.8291 79.7329 19.2848C80.827 20.3337 81.5051 21.8075 81.5051 23.4448C81.5051 25.0806 80.827 26.5567 79.7329 27.6071C80.1556 29.0628 80.0042 30.6806 79.1882 32.0986C78.3721 33.5144 77.0415 34.4548 75.5692 34.8149C75.2075 36.2887 74.2687 37.6156 72.8529 38.4354C71.4371 39.253 69.8171 39.4029 68.3598 38.9787C67.311 40.0728 65.8334 40.7539 64.2013 40.7539C62.5625 40.7539 61.0842 40.0728 60.0353 38.9787C58.5803 39.4029 56.9618 39.253 55.5445 38.4354C54.1265 37.6156 53.1899 36.2887 52.8282 34.8187C51.3559 34.4548 50.0268 33.5144 49.2092 32.0986C48.3894 30.6806 48.244 29.0628 48.666 27.6071C47.5719 26.5567 46.8907 25.0806 46.8907 23.4448C46.8907 21.8075 47.5719 20.3337 48.666 19.2826C48.244 17.8291 48.3894 16.2091 49.2092 14.7918C50.0268 13.376 51.3574 12.4372 52.8282 12.0732C53.1899 10.6032 54.1265 9.27628 55.5445 8.45649C56.9618 7.63895 58.5803 7.49127 60.0353 7.91549C61.0842 6.81766 62.5625 6.13801 64.2013 6.13801C65.8334 6.13801 67.311 6.81766 68.3598 7.91549Z" fill="#6C768A"/>
<path d="M52.8294 34.8167C52.4851 33.4235 52.6569 31.8985 53.433 30.5542C53.9408 29.6802 54.6423 28.9855 55.4531 28.4972C54.6257 28.9546 53.6718 29.2145 52.6607 29.2145C51.113 29.2145 49.7025 28.605 48.6672 27.6089C49.0665 26.2292 49.979 24.9935 51.3225 24.2197C52.1995 23.7141 53.1549 23.4624 54.0998 23.4451C53.1549 23.4263 52.1995 23.1799 51.3225 22.6728C49.979 21.8989 49.0665 20.6632 48.6672 19.2851C49.7025 18.2913 51.113 17.6764 52.6607 17.6764C53.6718 17.6764 54.6257 17.9394 55.4531 18.3975C54.6423 17.907 53.9423 17.2145 53.433 16.3382C52.6569 14.9963 52.4851 13.4704 52.8294 12.0757C54.2241 11.7314 55.7477 11.9055 57.0919 12.6831C57.9682 13.1886 58.6629 13.8909 59.1527 14.7009C58.6916 13.8721 58.4316 12.9197 58.4316 11.9092C58.4316 10.357 59.0412 8.94878 60.0388 7.91198C61.4184 8.3151 62.6511 9.22908 63.4287 10.5688C63.932 11.4451 64.1837 12.4013 64.201 13.3454C64.2161 12.4013 64.4678 11.4451 64.9749 10.571C65.7472 9.22908 66.9829 8.3151 68.361 7.91198C69.3587 8.94878 69.9697 10.357 69.9697 11.9092C69.9697 12.9197 69.709 13.8721 69.2524 14.6986C69.7392 13.8871 70.4339 13.1886 71.3102 12.6831C72.6499 11.9055 74.1757 11.7314 75.5726 12.0757C75.9147 13.4704 75.7407 14.9963 74.9668 16.3382C74.4613 17.2145 73.7628 17.907 72.955 18.3937C73.7801 17.9371 74.7303 17.6764 75.7392 17.6764C77.2929 17.6764 78.6989 18.2913 79.7364 19.2851C79.3348 20.6632 78.4208 21.8989 77.0811 22.6728C76.2048 23.1799 75.2524 23.4263 74.3121 23.4451C75.2524 23.4624 76.2048 23.7156 77.0811 24.2197C78.4208 24.9935 79.3348 26.2292 79.7364 27.6089C78.6989 28.605 77.2929 29.2145 75.7392 29.2145C74.7303 29.2145 73.7801 28.9584 72.955 28.5025C73.7628 28.9892 74.4613 29.6817 74.9631 30.5542C75.7407 31.8985 75.9147 33.4235 75.5726 34.8167C74.1757 35.161 72.6499 34.987 71.3102 34.2132C70.4354 33.7091 69.7429 33.0076 69.2562 32.2029C69.7105 33.0264 69.9697 33.9781 69.9697 34.9855C69.9697 36.5369 69.3587 37.9414 68.361 38.9805C66.9829 38.5811 65.7472 37.6671 64.9749 36.3237C64.4678 35.4489 64.2176 34.495 64.201 33.5486C64.1822 34.495 63.932 35.4489 63.4287 36.3237C62.6511 37.6671 61.4184 38.5811 60.041 38.9805C59.0412 37.9414 58.4316 36.5369 58.4316 34.9855C58.4316 33.9743 58.6916 33.0227 59.1489 32.1968C58.6607 33.0038 57.9682 33.7091 57.0919 34.2132C55.7477 34.987 54.2241 35.161 52.8294 34.8167ZM55.6286 28.3947C56.8915 27.6963 58.3849 27.4845 59.8097 27.8364C60.1639 29.2613 59.9499 30.7547 59.2552 32.0137C59.9951 30.7833 61.1818 29.8505 62.5939 29.4451C63.6126 30.503 64.1724 31.9022 64.201 33.3384C64.2259 31.9022 64.7895 30.503 65.8075 29.4451C67.218 29.8505 68.4025 30.7818 69.1432 32.0077C68.4499 30.7532 68.2397 29.2613 68.5901 27.8364C70.0134 27.4845 71.5068 27.6963 72.7637 28.391C71.5332 27.6473 70.6057 26.4621 70.1973 25.0523C71.2529 24.0396 72.6536 23.4752 74.0883 23.4451C72.6536 23.4202 71.2529 22.8581 70.1973 21.8402C70.6057 20.4319 71.5332 19.2437 72.7637 18.503C71.5068 19.1962 70.0134 19.4102 68.5901 19.0598C68.2397 17.6327 68.4499 16.1355 69.1484 14.8772C68.4047 16.1107 67.2195 17.042 65.8075 17.4511C64.7895 16.3932 64.2274 14.9887 64.201 13.5541C64.1747 14.9887 63.6126 16.3932 62.5939 17.4511C61.1818 17.042 59.9951 16.1107 59.2537 14.8772C59.9499 16.1355 60.1639 17.6327 59.8097 19.0575C58.3849 19.4102 56.8892 19.1962 55.6286 18.4977C56.8643 19.2399 57.7941 20.4281 58.2048 21.8402C57.1446 22.8604 55.7424 23.4202 54.304 23.4451C55.7424 23.4715 57.1431 24.0358 58.2048 25.0523C57.7957 26.4643 56.8628 27.6548 55.6286 28.3947Z" fill="#6C768A"/>
<path d="M30.6162 54.552L28.5381 54.5445C28.4756 54.5445 28.413 54.546 28.3542 54.5543C27.8607 54.5935 27.4689 54.806 27.1735 55.1842C26.848 55.6137 26.683 56.1931 26.683 56.9255V61.0742H24.0051V52.3926H26.683V54.005H26.7154C27.1276 52.8635 27.8547 52.2773 28.9013 52.2411H29.0038L29.3692 52.2426L30.6162 54.552Z" fill="#6C768A"/>
<path d="M35.346 59.2334C34.0003 59.2334 33.3282 58.4023 33.3282 56.7349C33.3282 55.9362 33.5007 55.3228 33.8526 54.8843C34.203 54.4503 34.695 54.231 35.3272 54.231C36.6216 54.231 37.2712 55.0433 37.2712 56.667C37.2712 58.3759 36.6277 59.2334 35.346 59.2334ZM38.7698 53.3984C37.9485 52.5884 36.8183 52.1808 35.3761 52.1808C33.9129 52.1808 32.7532 52.5884 31.8958 53.3984C31.0345 54.2084 30.6066 55.3326 30.6066 56.7673C30.6066 58.1567 31.021 59.2598 31.8483 60.0683C32.6756 60.8783 33.8111 61.2852 35.2586 61.2852C36.7279 61.2852 37.8845 60.867 38.7299 60.0321C39.5761 59.1957 39.998 58.0542 39.998 56.6135C39.998 55.2814 39.5874 54.2084 38.7698 53.3984Z" fill="#6C768A"/>
<path d="M55.3092 61.0742H52.6389V56.1208C52.6389 54.864 52.177 54.2318 51.2494 54.2318C50.8101 54.2318 50.4522 54.4209 50.1727 54.7999C49.8977 55.1805 49.7575 55.6514 49.7575 56.2157V61.0742H47.0796V56.0696C47.0796 54.8474 46.6238 54.2318 45.7151 54.2318C45.2585 54.2318 44.89 54.4119 44.6188 54.7751C44.343 55.1367 44.2066 55.6288 44.2066 56.2519V61.0742H41.528V52.3941H44.2066V53.7511H44.2367C44.517 53.2877 44.9051 52.9087 45.4046 52.6194C45.9042 52.3262 46.4512 52.1823 47.0472 52.1823C48.2701 52.1823 49.1125 52.7196 49.5631 53.8008C50.2254 52.7196 51.1944 52.1823 52.4799 52.1823C54.3666 52.1823 55.3092 53.3442 55.3092 55.674V61.0742Z" fill="#6C768A"/>
<path d="M62.5866 58.5287C62.2513 59.0019 61.7781 59.2347 61.1731 59.2347C60.6539 59.2347 60.2395 59.0456 59.9238 58.6689C59.6036 58.2883 59.4483 57.8001 59.4483 57.2018V56.5071C59.4483 55.8237 59.6224 55.2752 59.9713 54.857C60.3156 54.4426 60.7639 54.2323 61.311 54.2323C62.4977 54.2323 63.096 54.9949 63.096 56.5244C63.096 57.3872 62.9257 58.0555 62.5866 58.5287ZM64.9202 53.341C64.3053 52.5686 63.438 52.1821 62.3123 52.1821C61.1158 52.1821 60.1845 52.6899 59.5244 53.7004H59.4883V52.3946H56.8119V65.8594L59.492 65.8571L59.4883 60.0658H59.5244C60.0752 60.8796 60.8717 61.2865 61.9168 61.2865C63.0997 61.2865 64.0514 60.8494 64.7649 59.9731C65.4823 59.0968 65.8386 57.9342 65.8386 56.4868C65.8386 55.1614 65.5357 54.111 64.9202 53.341Z" fill="#6C768A"/>
<path d="M69.9754 55.8549C70.0455 55.3252 70.2331 54.8799 70.5473 54.5228C70.8593 54.1664 71.236 53.9923 71.664 53.9923C72.6691 53.9923 73.1702 54.6132 73.1702 55.8549H69.9754ZM75.6552 56.3718C75.6552 55.0849 75.3071 54.0624 74.6162 53.3112C73.9252 52.5614 72.9434 52.1847 71.6806 52.1847C70.4599 52.1847 69.4322 52.6051 68.5958 53.4475C67.7572 54.2899 67.339 55.4307 67.339 56.8729C67.339 58.2608 67.7285 59.3451 68.5009 60.1212C69.2754 60.901 70.3635 61.2891 71.762 61.2891C73.0489 61.2891 74.0902 61.0728 74.8912 60.6471V58.7114C74.1678 59.1635 73.3292 59.3903 72.3753 59.3903C70.8781 59.3903 70.0832 58.7604 69.9928 57.4998H75.6552V56.3718Z" fill="#6C768A"/>
<path d="M90.5869 54.5692L88.5103 54.5631C88.4425 54.5631 88.3837 54.5654 88.3212 54.5714C87.8292 54.6129 87.4373 54.8246 87.1442 55.2036C86.8165 55.6308 86.65 56.2103 86.65 56.9449V61.0898H83.9758V52.4097H86.65V54.0221H86.6839C87.0968 52.8806 87.8254 52.2944 88.8742 52.2582C88.9044 52.2582 88.9405 52.256 88.9745 52.256L89.3376 52.2597L90.5869 54.5692Z" fill="#6C768A"/>
<path d="M82.4526 60.9866C82.0585 61.1945 81.4625 61.3008 80.6676 61.3008C78.7824 61.3008 77.8345 60.3182 77.8345 58.3592V54.3845H76.4277V52.4089H77.8345V50.5372L80.5048 49.774V52.4089H82.4526V54.3845H80.5048V57.8898C80.5048 58.7969 80.8628 59.2475 81.5801 59.2475C81.8641 59.2475 82.1595 59.1677 82.4526 59.0026V60.9866Z" fill="#6C768A"/>
<path d="M95.3309 59.2475C93.9852 59.2475 93.3116 58.4164 93.3116 56.7475C93.3116 55.954 93.4871 55.3392 93.8375 54.8999C94.1879 54.4667 94.6776 54.2466 95.3136 54.2466C96.6088 54.2466 97.2538 55.0589 97.2538 56.6827C97.2538 58.3923 96.6141 59.2475 95.3309 59.2475ZM98.7532 53.4125C97.9334 52.604 96.8032 52.1972 95.3633 52.1972C93.8978 52.1972 92.7382 52.604 91.8807 53.4125C91.021 54.2225 90.59 55.3482 90.59 56.7829C90.59 58.1746 91.0059 59.2762 91.8332 60.0839C92.6605 60.8939 93.796 61.3008 95.242 61.3008C96.7128 61.3008 97.8709 60.8826 98.7148 60.0462C99.5595 59.2114 99.9829 58.0706 99.9829 56.6299C99.9829 55.2978 99.5708 54.2225 98.7532 53.4125Z" fill="#6C768A"/>
<path d="M104.162 61.0742H101.486V47.7036H104.162V61.0742Z" fill="#6C768A"/>
</g>
</g>
<defs>
<radialGradient id="paint0_radial_11077_12186" cx="0" cy="0" r="1" gradientUnits="userSpaceOnUse" gradientTransform="translate(64.1761 23.5353) scale(5.2856 5.28559)">
<stop stop-color="white"/>
<stop offset="0.24" stop-color="white"/>
<stop offset="0.402243" stop-color="white"/>
<stop offset="1" stop-color="#6C768A"/>
</radialGradient>
<clipPath id="clip0_11077_12186">
<rect width="80.1573" height="59.7197" fill="white" transform="translate(24 6.14062)"/>
</clipPath>
</defs>
</svg>
