<svg width="148" height="72" viewBox="0 0 148 72" fill="none" xmlns="http://www.w3.org/2000/svg">
<g clip-path="url(#clip0_11077_12345)">
<path d="M88.7177 46.3675C88.6912 45.7934 88.6582 45.1004 88.665 44.4997H88.6451C88.4999 45.0409 88.3151 45.6415 88.1171 46.2025L87.4704 48.1298H86.8435L86.2496 46.229C86.0782 45.6613 85.9195 45.0543 85.8009 44.4997H85.7878C85.7679 45.0805 85.7417 45.7867 85.7085 46.3941L85.6093 48.1826H84.8503L85.1475 43.7344H86.2167L86.7975 45.5229C86.9558 46.0442 87.0946 46.5722 87.2065 47.0673H87.2264C87.345 46.5857 87.4969 46.0378 87.6687 45.5165L88.2825 43.7344H89.3385L89.596 48.1826H88.8041L88.7184 46.3675H88.7177Z" fill="#6C768A"/>
<path d="M95.3985 43.7344H94.3632L92.9364 48.1826H93.7747L94.1585 46.9215H95.5699L95.9736 48.1826H96.8448L95.3985 43.7344ZM94.2913 46.3074L94.6345 45.212C94.7125 44.9488 94.7787 44.6389 94.8449 44.3797H94.8587C94.9249 44.6389 94.9971 44.941 95.0829 45.212L95.4317 46.3074H94.2913Z" fill="#6C768A"/>
<path d="M100.841 43.7344H101.652V47.5029H103.481V48.1826H100.841V43.7344Z" fill="#6C768A"/>
<path d="M107.602 43.7344H108.414V47.5029H110.242V48.1826H107.602V43.7344Z" fill="#6C768A"/>
<path d="M97.2188 30.1146C97.1644 30.0521 97.0783 29.9976 96.9577 29.9489C96.835 29.9059 96.6693 29.8689 96.4683 29.8417C96.2636 29.8165 96.0064 29.8047 95.6982 29.8047C95.39 29.8047 95.1231 29.8165 94.9225 29.8417C94.7218 29.8689 94.5581 29.9059 94.4371 29.9489C94.3124 29.9976 94.2247 30.0521 94.1759 30.1146C94.1232 30.1768 94.1 30.2548 94.1 30.3347V41.6156C94.1 41.6976 94.1235 41.7695 94.1759 41.8357C94.2247 41.8962 94.3124 41.9527 94.4371 41.9917C94.5581 42.0364 94.7218 42.0656 94.9225 42.0835C95.1231 42.107 95.3826 42.1204 95.6982 42.1204C96.0138 42.1204 96.2636 42.1066 96.4683 42.0835C96.6689 42.066 96.8346 42.0367 96.9577 41.9917C97.0787 41.9527 97.1644 41.8962 97.2188 41.8357C97.2676 41.7695 97.2928 41.6973 97.2928 41.6156V30.3347C97.2928 30.2548 97.2676 30.1768 97.2188 30.1146Z" fill="#6C768A"/>
<path d="M110.243 41.6138C110.243 41.6972 110.22 41.7688 110.168 41.834C110.116 41.8948 110.031 41.951 109.913 41.991C109.797 42.036 109.633 42.0652 109.426 42.0827C109.219 42.1059 108.962 42.1187 108.66 42.1187C108.358 42.1187 108.087 42.1059 107.879 42.0827C107.673 42.0652 107.511 42.036 107.395 41.991C107.272 41.951 107.19 41.8948 107.141 41.834C107.088 41.7688 107.063 41.6969 107.063 41.6138V35.1654C107.063 34.6135 107.022 34.1826 106.941 33.8707C106.863 33.5574 106.746 33.2892 106.594 33.0673C106.44 32.8452 106.246 32.6687 106.006 32.547C105.766 32.423 105.482 32.3628 105.163 32.3628C104.753 32.3628 104.345 32.5097 103.936 32.8068C103.517 33.1006 103.09 33.5312 102.643 34.0969V41.6135C102.643 41.6969 102.617 41.7684 102.563 41.8337C102.516 41.8945 102.43 41.9506 102.304 41.9906C102.182 42.0357 102.021 42.0649 101.817 42.0824C101.613 42.1056 101.357 42.1183 101.042 42.1183C100.726 42.1183 100.473 42.1056 100.272 42.0824C100.067 42.0649 99.9095 42.0357 99.7825 41.9906C99.6598 41.9506 99.5761 41.8945 99.524 41.8337C99.4739 41.7684 99.4501 41.6965 99.4501 41.6135V30.3105C99.4501 30.2244 99.4689 30.1542 99.5109 30.086C99.5553 30.0281 99.6302 29.9734 99.7401 29.93C99.8517 29.888 99.9909 29.8564 100.165 29.8339C100.339 29.814 100.556 29.804 100.816 29.804C101.077 29.804 101.311 29.814 101.491 29.8339C101.666 29.8561 101.804 29.888 101.898 29.93C101.997 29.9734 102.066 30.0278 102.109 30.086C102.151 30.1542 102.171 30.2244 102.171 30.3105V31.6156C102.8 30.9404 103.434 30.4328 104.081 30.0957C104.723 29.7566 105.399 29.5898 106.099 29.5898C106.869 29.5898 107.517 29.7159 108.043 29.9697C108.571 30.2231 108.999 30.5639 109.326 31.0012C109.65 31.4372 109.882 31.9447 110.026 32.5295C110.17 33.1097 110.242 33.8122 110.242 34.6316V41.6132L110.243 41.6138Z" fill="#6C768A"/>
<path d="M121.235 30.1953C121.183 30.1953 121.132 30.1973 121.083 30.203C121.13 30.1973 121.177 30.1973 121.226 30.1973H121.235C121.298 30.1973 121.356 30.2014 121.415 30.2051C121.358 30.1973 121.298 30.1953 121.235 30.1953ZM121.417 30.2051C121.532 30.2185 121.637 30.24 121.733 30.2753C121.637 30.2383 121.532 30.2148 121.417 30.2051Z" fill="#6C768A"/>
<path d="M92.9001 30.36C92.8802 30.1899 92.8483 30.0575 92.813 29.9577C92.7727 29.8578 92.727 29.7835 92.6772 29.7429C92.6228 29.7019 92.5589 29.6797 92.4917 29.6797H90.3395C86.4378 29.6797 84.9196 31.0874 84.9159 34.5329V41.8112C84.9159 41.8963 84.9441 41.9706 84.9935 42.0344C85.0456 42.0956 85.1273 42.1504 85.2537 42.1937C85.3767 42.2364 85.5381 42.2667 85.7411 42.2889C85.9441 42.3097 86.1989 42.3188 86.5128 42.3188C86.8267 42.3188 87.0812 42.3097 87.2859 42.2889C87.4909 42.2667 87.6536 42.2364 87.7749 42.1937C87.8942 42.1504 87.9863 42.0959 88.0354 42.0344C88.0852 41.9706 88.1114 41.8966 88.1114 41.8112V34.5329H88.0986C88.108 32.7293 88.6643 32.3233 90.4256 32.3233L91.5462 32.3122H92.4917C92.5589 32.3122 92.6228 32.2883 92.6772 32.2483C92.727 32.206 92.7727 32.1344 92.813 32.0352C92.8486 31.934 92.8802 31.7979 92.9001 31.6319C92.9189 31.4658 92.9317 31.2547 92.9317 30.9946C92.9317 30.7344 92.9189 30.5257 92.9001 30.3597V30.36Z" fill="#6C768A"/>
<path d="M79.9097 42.0173C80.0324 41.9706 80.2196 41.8946 80.4438 41.7911C80.4535 41.7521 80.4612 41.7151 80.469 41.6761C80.2915 41.8029 80.1046 41.9158 79.9097 42.0173ZM80.3661 29.8535C80.2727 29.8495 80.1752 29.8458 80.0737 29.8438C80.1752 29.8555 80.2744 29.8673 80.3718 29.8807C80.3698 29.871 80.3678 29.8632 80.3661 29.8535Z" fill="#6C768A"/>
<path d="M80.4459 41.7913C80.2217 41.8945 80.0345 41.9708 79.9118 42.0175C79.9078 42.0195 79.9061 42.0195 79.902 42.0215C79.8395 42.0565 79.7773 42.0877 79.7148 42.117C79.1162 42.3956 78.4537 42.5341 77.7304 42.5341C77.1281 42.5341 76.5822 42.4561 76.0753 42.3002C75.5745 42.1442 75.1376 41.9123 74.7732 41.6044C74.4048 41.2945 74.1221 40.9123 73.9154 40.4542C73.7148 40.0018 73.6133 39.4697 73.6133 38.8637C73.6133 38.2009 73.7477 37.6298 74.0011 37.1424C74.2566 36.6591 74.6425 36.2574 75.153 35.9435C75.6639 35.6238 76.3012 35.3899 77.0575 35.236C77.8215 35.086 78.6987 35.0118 79.7084 35.0118H80.8059V34.3274C80.8059 33.9708 80.7726 33.6626 80.6986 33.3957C80.6284 33.1288 80.5114 32.9063 80.344 32.7329C80.1824 32.5517 79.9619 32.4189 79.6889 32.3373C79.4123 32.2516 79.0728 32.2105 78.6675 32.2105C78.1354 32.2105 77.6578 32.267 77.2427 32.386C76.8255 32.505 76.4572 32.6354 76.1355 32.7799C75.8118 32.9204 75.5449 33.0586 75.3285 33.1739C75.114 33.2929 74.9386 33.3513 74.8041 33.3513C74.7087 33.3513 74.6307 33.3221 74.5564 33.2579C74.4841 33.2051 74.424 33.1194 74.3769 33.0122C74.3322 32.8993 74.2969 32.7645 74.2737 32.6068C74.2465 32.4452 74.2368 32.2657 74.2368 32.0707C74.2368 31.8096 74.2542 31.6028 74.2973 31.4489C74.3403 31.3007 74.4183 31.1605 74.5369 31.0415C74.6579 30.9148 74.8623 30.7804 75.1587 30.6342C75.4532 30.4859 75.8 30.3515 76.1957 30.2227C76.5933 30.094 77.0299 29.9928 77.4958 29.9108C77.9636 29.8308 78.449 29.7902 78.9461 29.7902C79.3478 29.7902 79.7259 29.8076 80.0748 29.8446C80.1763 29.8466 80.2738 29.8503 80.3672 29.8544C81.1938 29.8913 81.7534 29.9908 82.1177 30.0923C79.3757 16.7245 67.5214 6.64062 53.3557 6.64062C37.1665 6.64062 23.9967 19.8125 23.9967 36.0016C23.9967 52.1908 37.1665 65.3606 53.3557 65.3606C68.0186 65.3606 80.2039 54.5594 82.3735 40.4929C81.7752 41.1012 80.9975 41.5318 80.4456 41.7913H80.4459ZM37.7336 39.5534C37.751 39.4052 37.7766 39.2862 37.8095 39.1968C37.8428 39.105 37.8875 39.0486 37.9362 39.0213C37.987 38.9921 38.0492 38.9783 38.1272 38.9783C38.2189 38.9783 38.3571 39.0311 38.5386 39.1363C38.7197 39.2415 38.9459 39.3548 39.2148 39.4795C39.4878 39.6082 39.7997 39.7272 40.1563 39.8381C40.517 39.9473 40.9264 40.0018 41.3845 40.0018C41.6672 40.0018 41.9226 39.9725 42.1505 39.9141C42.3707 39.8556 42.5656 39.7719 42.7296 39.6586C42.8974 39.5494 43.02 39.4149 43.1057 39.2415C43.1894 39.0758 43.2304 38.8808 43.2304 38.6587C43.2304 38.4032 43.1525 38.1851 42.9985 38.0056C42.8405 37.8224 42.6342 37.6701 42.3747 37.53C42.1172 37.3975 41.8288 37.2688 41.5014 37.1518C41.1757 37.0349 40.8443 36.9024 40.5035 36.7579C40.1566 36.6137 39.8272 36.448 39.5015 36.2628C39.1742 36.0776 38.8854 35.8497 38.6243 35.5785C38.3708 35.3075 38.1624 34.9879 38.0065 34.6057C37.8485 34.2256 37.7705 33.7695 37.7705 33.2354C37.7705 32.7013 37.8757 32.2001 38.0902 31.7521C38.2989 31.294 38.6028 30.9118 38.9987 30.5884C39.3984 30.2708 39.8797 30.0191 40.4511 29.8419C41.0201 29.6644 41.6618 29.575 42.3713 29.575C42.7243 29.575 43.0671 29.6002 43.4005 29.653C43.7376 29.7038 44.0361 29.766 44.3091 29.8423C44.5779 29.9202 44.8082 30.0002 44.9934 30.088C45.1806 30.1777 45.313 30.2537 45.391 30.3179C45.471 30.3804 45.5275 30.4446 45.5624 30.5088C45.5957 30.5713 45.625 30.6452 45.6404 30.737C45.6559 30.8247 45.6737 30.9299 45.6851 31.0644C45.6969 31.1951 45.7026 31.3608 45.7026 31.5518C45.7026 31.778 45.6969 31.9632 45.6851 32.1094C45.6734 32.2556 45.6502 32.3665 45.6189 32.4505C45.5897 32.5403 45.5507 32.5927 45.4999 32.624C45.4492 32.6512 45.3887 32.667 45.3245 32.667C45.2485 32.667 45.1275 32.624 44.9678 32.5346C44.8079 32.4468 44.6052 32.3514 44.3655 32.2479C44.1239 32.1447 43.8489 32.0509 43.5293 31.9632C43.2136 31.8754 42.853 31.8307 42.4453 31.8307C42.1606 31.8307 41.9092 31.862 41.7008 31.9185C41.4883 31.9769 41.3149 32.0627 41.1801 32.1739C41.0437 32.2852 40.9462 32.4119 40.8743 32.5598C40.8101 32.706 40.7768 32.866 40.7768 33.0354C40.7768 33.2966 40.8568 33.5167 41.0147 33.6922C41.1764 33.8733 41.3872 34.0236 41.6483 34.1621C41.9095 34.2985 42.2076 34.4232 42.5451 34.5402C42.8765 34.6612 43.2136 34.7899 43.5548 34.9281C43.896 35.0686 44.2331 35.2302 44.5685 35.4154C44.8999 35.6027 45.1981 35.8306 45.4613 36.1015C45.7244 36.3724 45.9369 36.694 46.0969 37.0685C46.2548 37.4486 46.3365 37.891 46.3365 38.4039C46.3365 39.0492 46.2138 39.6146 45.9759 40.102C45.7362 40.593 45.3951 41.0024 44.9564 41.3301C44.5178 41.6636 43.9955 41.9109 43.3968 42.0746C42.7965 42.2383 42.1492 42.3224 41.4457 42.3224C41.0265 42.3224 40.6191 42.2874 40.237 42.2249C39.8511 42.1624 39.5079 42.0807 39.2037 41.9832C38.8996 41.8898 38.6444 41.7923 38.4434 41.6868C38.2408 41.5852 38.0945 41.4918 38.0008 41.4041C37.9073 41.3143 37.833 41.1722 37.7863 40.987C37.7336 40.796 37.7124 40.5154 37.7124 40.1409C37.7124 39.8952 37.7164 39.7003 37.7339 39.5541L37.7336 39.5534ZM47.0925 36.1576V35.8554C47.0925 32.4089 49.9111 29.5902 53.3557 29.5902C55.079 29.5902 56.6443 30.294 57.7807 31.4304C58.9171 32.5668 59.621 34.1321 59.621 35.8554V36.1576C59.621 39.6021 56.8023 42.4208 53.3557 42.4208C49.9091 42.4208 47.0925 39.6021 47.0925 36.1576ZM65.1609 32.4949V41.6451C65.1609 41.7288 65.1336 41.801 65.0829 41.8632C65.0342 41.9274 64.9464 41.9822 64.8295 42.0192C64.7165 42.0602 64.5508 42.0972 64.3441 42.1166C64.1394 42.1361 63.8782 42.1459 63.5663 42.1459C63.2544 42.1459 63.003 42.1361 62.7963 42.1166C62.5916 42.0972 62.4279 42.0602 62.3012 42.0192C62.1802 41.9822 62.0965 41.9274 62.0498 41.8632C62.0067 41.8007 61.9815 41.7288 61.9815 41.6451V32.4949H60.5624C60.4024 32.4949 60.2818 32.3954 60.2018 32.1984C60.1198 31.9978 60.0828 31.6681 60.0828 31.2022C60.0828 30.9605 60.0925 30.7518 60.11 30.5844C60.1352 30.4147 60.1628 30.2843 60.2018 30.1868C60.2387 30.0893 60.2895 30.0191 60.3537 29.9764C60.4142 29.9317 60.4922 29.9101 60.5739 29.9101H61.9812V28.9122C61.9812 28.1442 62.0571 27.4736 62.2171 26.8985C62.3711 26.3234 62.6091 25.8458 62.9307 25.4579C63.2504 25.0741 63.6598 24.7894 64.1471 24.5981C64.6382 24.4072 65.2153 24.3097 65.8822 24.3097C66.0674 24.3097 66.2566 24.3235 66.4475 24.337C66.6368 24.3544 66.8179 24.38 66.9873 24.417C67.1551 24.4482 67.2993 24.4892 67.428 24.5282C67.5527 24.5712 67.6424 24.6139 67.6871 24.6606C67.7318 24.7057 67.7729 24.7601 67.8021 24.8186C67.8334 24.8771 67.8586 24.9571 67.8801 25.0468C67.8976 25.1403 67.9134 25.2593 67.9248 25.4095C67.9305 25.5557 67.9345 25.7389 67.9345 25.9611C67.9345 26.3644 67.913 26.6511 67.8663 26.8148C67.8196 26.9765 67.7258 27.0625 67.5934 27.0625C67.5426 27.0625 67.4861 27.0548 67.4256 27.0353C67.3594 27.0199 67.2835 26.9963 67.1937 26.9748C67.106 26.9476 67.0045 26.9261 66.8838 26.9009C66.7648 26.8814 66.6186 26.8696 66.4412 26.8696C65.9928 26.8696 65.6674 27.0236 65.4644 27.3277C65.2617 27.6319 65.1602 28.1328 65.1602 28.8346V29.9105H71.5717C71.8913 29.9105 72.133 29.9844 72.295 30.1209C72.453 30.2594 72.5367 30.4836 72.5367 30.7857V41.6454C72.5367 41.7291 72.5094 41.8014 72.4567 41.8636C72.4059 41.9278 72.3242 41.9825 72.2053 42.0195C72.0883 42.0605 71.9246 42.0975 71.7179 42.117C71.5092 42.1365 71.2577 42.1462 70.9478 42.1462C70.6379 42.1462 70.3768 42.1365 70.1701 42.117C69.9613 42.0975 69.8017 42.0605 69.6827 42.0195C69.5637 41.9825 69.484 41.9278 69.4293 41.8636C69.3785 41.801 69.357 41.7291 69.357 41.6454V32.4952H65.1602L65.1609 32.4949ZM72.3948 27.8669C72.2389 28.0464 72.0399 28.1845 71.8063 28.284C71.5683 28.3872 71.2917 28.4359 70.97 28.4359C70.3697 28.4359 69.8978 28.2722 69.5647 27.9368C69.2256 27.6074 69.0599 27.1493 69.0599 26.5742C69.0599 26.313 69.0948 26.0616 69.1728 25.8216C69.2467 25.5799 69.3637 25.3712 69.5217 25.186C69.6776 25.0065 69.8746 24.8623 70.1102 24.7571C70.3482 24.6519 70.6191 24.5971 70.9347 24.5971C71.5488 24.5971 72.0264 24.7706 72.3636 25.1097C72.7027 25.4431 72.8704 25.9147 72.8704 26.5231C72.8704 26.7785 72.8294 27.0202 72.7498 27.2541C72.6698 27.4861 72.5508 27.6908 72.3948 27.8662V27.8669Z" fill="#6C768A"/>
<path d="M121.873 30.3355C121.697 30.2451 121.483 30.198 121.234 30.1967H121.225C121.177 30.1967 121.13 30.198 121.083 30.2027C121.132 30.1983 121.183 30.1953 121.234 30.1953C121.486 30.1953 121.698 30.242 121.873 30.3358V30.3355Z" fill="#6C768A"/>
<path d="M122.875 30.3857C122.838 30.3252 122.791 30.2687 122.741 30.218C122.686 30.1635 122.628 30.1168 122.563 30.0775C122.54 30.062 122.514 30.0482 122.489 30.0344C122.312 29.9447 122.099 29.898 121.852 29.8959H121.842C121.793 29.8959 121.747 29.898 121.7 29.9017C121.749 29.8976 121.799 29.8939 121.852 29.8939L121.7 29.8842H118.872C118.591 29.8062 118.291 29.7477 117.965 29.703C117.636 29.664 117.302 29.6445 116.944 29.6445C116.251 29.6445 115.618 29.738 115.045 29.9292C114.47 30.1164 113.975 30.3931 113.563 30.7517C113.148 31.1083 112.824 31.547 112.592 32.0696C112.359 32.5883 112.244 33.1808 112.244 33.8356C112.244 34.4554 112.331 34.9683 112.511 35.3834C112.686 35.7948 112.924 36.1478 113.218 36.4439C112.858 36.7753 112.565 37.1437 112.331 37.5531C112.105 37.9625 111.99 38.4166 111.99 38.9157C111.99 39.3113 112.09 39.6797 112.287 40.0111C112.486 40.3466 112.766 40.6097 113.135 40.8084C112.869 40.9993 112.642 41.2023 112.433 41.4107C112.234 41.6191 112.062 41.8433 111.916 42.0772C111.782 42.3071 111.677 42.5508 111.604 42.8023C111.532 43.0577 111.495 43.3246 111.495 43.6036C111.495 44.0499 111.597 44.4613 111.793 44.8374C111.992 45.2136 112.31 45.5393 112.746 45.8061C113.181 46.075 113.739 46.2878 114.417 46.4417C115.099 46.5957 115.918 46.67 116.881 46.67C117.844 46.67 118.733 46.5668 119.474 46.3523C120.212 46.1419 120.824 45.8572 121.316 45.4925C121.805 45.1279 122.172 44.6973 122.419 44.2079C122.663 43.7108 122.784 43.1844 122.784 42.6251C122.784 42.1203 122.694 41.6678 122.513 41.2702C122.328 40.8746 122.072 40.5375 121.725 40.2508C121.384 39.9701 120.965 39.7516 120.464 39.592C119.959 39.438 119.384 39.3463 118.741 39.3248L115.994 39.2196C115.604 39.2021 115.302 39.1164 115.088 38.9604C114.875 38.8044 114.766 38.6018 114.766 38.3601C114.766 38.1729 114.807 38.0052 114.887 37.8532C114.967 37.7013 115.056 37.5685 115.16 37.4576C115.337 37.5766 115.589 37.6798 115.918 37.7695C116.247 37.8593 116.593 37.904 116.957 37.904C117.671 37.904 118.312 37.8126 118.889 37.6311C119.469 37.4459 119.959 37.1807 120.372 36.8318C120.781 36.4809 121.095 36.052 121.315 35.5374C121.536 35.0285 121.643 34.4477 121.643 33.7848C121.643 33.5042 121.604 33.239 121.522 32.9798C121.444 32.7224 121.309 32.4945 121.126 32.2898H122.113C122.214 32.2743 122.306 32.2488 122.39 32.2118C122.536 32.1513 122.661 32.0636 122.758 31.9506C122.799 31.9059 122.834 31.8589 122.865 31.8064C122.914 31.7325 122.953 31.6525 122.982 31.5648C123.031 31.4186 123.058 31.2666 123.058 31.1066C123.058 30.8183 122.998 30.5766 122.875 30.3853V30.3857ZM114.772 42.413C114.854 42.2786 114.959 42.1344 115.088 41.9902C115.218 41.8383 115.393 41.688 115.616 41.5263L117.883 41.5889C118.411 41.6084 118.834 41.7196 119.136 41.9183C119.442 42.1209 119.593 42.4134 119.593 42.7955C119.593 43.012 119.549 43.2224 119.464 43.4194C119.382 43.62 119.236 43.8015 119.035 43.9592C118.834 44.1171 118.567 44.2459 118.236 44.3471C117.908 44.4425 117.501 44.4933 117.021 44.4933C116.243 44.4933 115.643 44.384 115.216 44.1619C114.789 43.9417 114.573 43.622 114.573 43.1989C114.573 43.0644 114.588 42.9317 114.614 42.8033C114.639 42.6806 114.69 42.5458 114.772 42.4134L114.772 42.413ZM118.725 34.5025C118.645 34.7344 118.526 34.9391 118.368 35.1145C118.212 35.294 118.015 35.4322 117.781 35.5317C117.542 35.6348 117.265 35.6836 116.943 35.6836C116.345 35.6836 115.871 35.5199 115.537 35.1844C115.2 34.855 115.032 34.3969 115.032 33.8218C115.032 33.5607 115.067 33.3092 115.147 33.0692C115.22 32.8276 115.337 32.6188 115.494 32.4336C115.65 32.2542 115.849 32.11 116.083 32.0048C116.321 31.8996 116.592 31.8448 116.907 31.8448C117.521 31.8448 117.999 32.0182 118.338 32.3573C118.675 32.6908 118.845 33.1624 118.845 33.7707C118.845 34.0242 118.802 34.2678 118.724 34.5018L118.725 34.5025Z" fill="#6C768A"/>
<path d="M79.5977 37.0078H80.8084V38.9358C80.4205 39.3764 80.0383 39.7079 79.6642 39.9398C79.2898 40.164 78.8747 40.2789 78.4323 40.2789C77.8982 40.2789 77.4811 40.1465 77.183 39.8752C76.8808 39.6043 76.7289 39.2339 76.7289 38.7603C76.7289 38.4797 76.7833 38.232 76.8889 38.0175C76.9961 37.8051 77.1638 37.6159 77.3897 37.4696C77.6196 37.3157 77.9161 37.2024 78.2787 37.1228C78.6414 37.0488 79.08 37.0078 79.5983 37.0078H79.5977Z" fill="#6C768A"/>
<path d="M80.3728 29.8807C80.2753 29.8673 80.1758 29.8555 80.0746 29.8438C80.1762 29.8458 80.2736 29.8495 80.3671 29.8535C80.3691 29.8632 80.3711 29.871 80.3728 29.8807Z" fill="#6C768A"/>
<path d="M80.4712 41.6758C80.4634 41.7148 80.4557 41.7517 80.446 41.7907C80.2218 41.8939 80.0345 41.9702 79.9119 42.0169C80.1068 41.9154 80.294 41.8025 80.4712 41.6758Z" fill="#6C768A"/>
</g>
<defs>
<clipPath id="clip0_11077_12345">
<rect width="99.061" height="58.72" fill="white" transform="translate(23.9982 6.64062)"/>
</clipPath>
</defs>
</svg>
